<svg viewBox="0 0 75 46" fill="none" xmlns="http://www.w3.org/2000/svg"><path fill-rule="evenodd" clip-rule="evenodd" d="m16.105 12.525 3.207-.434.397 23.375-14.948-1.749c-1.698-.199-2.982-1.165-3.187-2.402L0 21.902l.035-.162C.64 18.916 4.1 16.79 7.284 15.374c2.596-1.155 5.807-2.205 8.741-2.831l.08-.018z" fill="#000"/><path fill-rule="evenodd" clip-rule="evenodd" d="M16.49 13.68c-3.445.735-13.866 3.73-14.834 8.242l1.547 9.253c.118.71.844 1.257 1.82 1.371l13.02 1.526-.35-20.555-1.203.163z" fill="#2049E3"/><path fill-rule="evenodd" clip-rule="evenodd" d="M16.49 13.68c-3.445.735-13.866 3.73-14.834 8.242l1.547 9.253c.102.616.663 1.11 1.447 1.304a1.306 1.306 0 0 1-.214-.523L2.89 22.703c.967-4.506 11.368-7.242 14.826-7.983l-1.225-1.04z" fill="#3B71F6"/><path fill-rule="evenodd" clip-rule="evenodd" d="m58.894 12.525-3.204-.434-.397 23.375 14.945-1.75c1.697-.2 2.981-1.166 3.187-2.4l1.573-9.414-.034-.162c-.606-2.824-4.066-4.949-7.25-6.366-2.595-1.155-5.807-2.205-8.74-2.831l-.08-.018z" fill="#000"/><path fill-rule="evenodd" clip-rule="evenodd" d="M58.511 13.68c3.445.735 13.866 3.73 14.834 8.242l-1.546 9.253c-.12.71-.845 1.257-1.822 1.372L56.958 34.07l.349-20.555 1.204.164z" fill="#2049E3"/><path fill-rule="evenodd" clip-rule="evenodd" d="M58.51 13.68c3.444.735 13.865 3.73 14.833 8.242l-1.546 9.253c-.103.616-.664 1.11-1.449 1.304.11-.157.183-.335.215-.523l1.546-9.253c-.966-4.506-11.367-7.242-14.824-7.983l1.225-1.04z" fill="#3B71F6"/><path fill-rule="evenodd" clip-rule="evenodd" d="m58.99 30.212.005 2.185L46.498 44.95l-17.712.04L16.23 32.494l-.04-17.71.005-.005-.005-2.185L28.688.04 46.401 0l12.554 12.496.04 17.711-.005.005z" fill="#000"/><path fill-rule="evenodd" clip-rule="evenodd" d="m45.913 3.377-16.73.039-11.804 11.856L17.417 32l11.858 11.803 16.73-.038 11.803-11.857-.038-16.728L45.913 3.377z" fill="#2049E3"/><path fill-rule="evenodd" clip-rule="evenodd" d="m29.274 43.803 16.73-.038 11.805-11.857-.006-2.81-7.986-2.62s-16.97 11.586-20.543 15.134v2.19z" fill="#0024A8"/><path fill-rule="evenodd" clip-rule="evenodd" d="m46.004 43.765 9.473-9.515-3.102-2.401s-6.076 7.196-6.371 9.725v2.191z" fill="#1239C7"/><path fill-rule="evenodd" clip-rule="evenodd" d="m45.913 1.188-16.73.038-11.804 11.856.038 16.728 11.858 11.803 16.73-.038 11.803-11.857-.038-16.728L45.913 1.188z" fill="#3B71F6"/><path d="m44.33 5.031-13.547.031-9.56 9.603.031 13.474h-.695l-.03-13.6a.344.344 0 0 1 .1-.262l9.762-9.807a.35.35 0 0 1 .247-.102l13.82-.032a.348.348 0 0 1 .261.101l9.807 9.761a.345.345 0 0 1 .101.247l.032 13.694h-.698l-.026-13.55-9.605-9.558z" fill="#2049E3"/><path fill-rule="evenodd" clip-rule="evenodd" d="m45.913 1.188-16.73.038-11.804 11.856.038 16.728 11.858 11.803h.062L17.82 30.147l.19-16.27L29.813 2.02l16.89-.047-.79-.786z" fill="#4797F7"/><path fill-rule="evenodd" clip-rule="evenodd" d="m17.407 23.777.013 5.866 7.47 7.615 2.574 2.562 2.617.035a1.252 1.252 0 0 0 1.258-1.072l.03-.204 3.082.953a1.256 1.256 0 0 0 1.569-.834l.394-1.294h1.734l.346 1.222a1.255 1.255 0 0 0 1.573.857l2.75-.84c.155.223.378.39.636.475 1.315.438 2.882.66 4.274.722l2.348-2.358 7.735-7.93-.011-4.848-3.11.563a1.25 1.25 0 0 0-.806.519 1.26 1.26 0 0 0-1.08-1.12c-1.814-.245-3.923-.405-5.713 0-2.066.469-3.542 1.709-3.684 3.928a4.457 4.457 0 0 0 .943 3.049c.323.412.71.772 1.143 1.065-.825-.29-1.738-.478-2.091.607l-3.09-8.004a1.25 1.25 0 0 0-1.17-.802h-3.684a1.25 1.25 0 0 0-1.174.813l-3.011 8.017c-.49-.25-1.834-.084-2.421-.06l.718-6.864a1.254 1.254 0 0 0-1.133-1.379l-4.27-.39a1.245 1.245 0 0 0-.949.317c-.058.052-.112.11-.16.172l-.025-.016c-1.26-.75-3.1-1.245-4.56-1.334a9.805 9.805 0 0 0-1.069-.006l.004-.002zM25.575 4.85c5.289-.363 7.912.884 9.315 1.89 1.29-2.051 4.562-1.476 5.73.714 1.551-.986 3.624-2.497 8.821-2.859l3.267 3.381-1.134 4.715 1.683 6.606c.132.526-.018.73-.223 1.167l-30.54.17c-.203-.469-.403-.84-.267-1.37l1.78-6.932-1.601-4.3 3.169-3.183z" fill="#2049E3"/><path fill-rule="evenodd" clip-rule="evenodd" d="m40.918 19.552.095 1.348a1.273 1.273 0 0 1-1.286 1.36l-3.835-.053a1.272 1.272 0 0 1-1.253-1.307c-.857.62-1.925.97-2.959 1.161-2.003.37-4.24.29-6.269.16a1.265 1.265 0 0 1-.947-.524c-.424-.585-.78-1.05-1.354-2.481l3.23-6.682-.02.003a1.27 1.27 0 0 1-1.374-.798L23.88 8.808c-.082-.212.865-.911 1.266-.958 2.039-.237 4.43-.246 6.452.136 1.288.243 2.637.714 3.554 1.556.307-1.138 1.27-2.014 2.56-2.014 1.492 0 2.71 1.183 2.979 2.605a7 7 0 0 1 1.828-1.313c2.14-1.088 4.875-1.33 7.242-1.158.539.04 1.759 1.088 1.681 1.461l-.946 3.613c-.107.515-.68.578-1.117.787l3.074 5.448c-.364.948-1.233 2.433-1.447 2.738a1.266 1.266 0 0 1-.918.533c-3.38.327-7.014-.4-9.167-2.689h-.003z" fill="#000"/><path fill-rule="evenodd" clip-rule="evenodd" d="m41.218 17.144.104 1.474a1.387 1.387 0 0 1-1.403 1.484l-4.186-.06a1.389 1.389 0 0 1-1.365-1.429c-.937.677-2.102 1.06-3.23 1.27-2.186.405-4.626.318-6.84.174a1.388 1.388 0 0 1-1.254-1.73l2.268-8.84-.024.003a1.386 1.386 0 0 1-1.498-.872l-.916-2.367a1.389 1.389 0 0 1 1.134-1.878c2.224-.259 4.833-.269 7.041.148 1.405.265 2.877.78 3.875 1.699.336-1.243 1.389-2.198 2.795-2.198 1.627 0 2.957 1.29 3.25 2.843a7.646 7.646 0 0 1 1.995-1.432c2.337-1.188 5.32-1.34 7.902-1.152a1.388 1.388 0 0 1 1.258 1.666l-.77 3.587c-.116.561-.43.801-.905 1.03l1.985 7.795a1.388 1.388 0 0 1-1.211 1.72c-3.69.357-7.655-.436-10.005-2.935z" fill="#000"/><path fill-rule="evenodd" clip-rule="evenodd" d="m26.837 8.11-2.695 10.496a.255.255 0 0 0 .23.318c2.072.134 4.525.22 6.56-.157 1.43-.264 2.965-.841 3.715-2.074.77-1.27.566-2.732-.526-3.753a5.331 5.331 0 0 0-1.219-.832c1.149-.73 2.05-1.693 2.12-2.875.252-4.255-7.776-4.095-10.88-3.734a.254.254 0 0 0-.207.343l.915 2.364a.255.255 0 0 0 .274.159l1.713-.255zM50.76 5.388c-4.983-.362-10.973 1.016-10.467 6.84.493 5.672 6.108 7.178 10.82 6.722a.245.245 0 0 0 .184-.106.249.249 0 0 0 .038-.208l-1.861-7.374a.25.25 0 0 0-.246-.19h-2.645a.255.255 0 0 0-.254.293l.462 2.973c-1.391-.484-2.706-1.404-2.701-2.836.009-2.466 3.254-2.65 5.844-2.003a.254.254 0 0 0 .31-.195l.746-3.61a.254.254 0 0 0-.23-.306zm-13.037-.232c1.085 0 2.054.952 2.165 2.132.111 1.18-.678 2.133-1.763 2.133s-2.055-.953-2.166-2.133c-.111-1.18.679-2.132 1.764-2.132zM36.255 10.1l-.753 8.532a.254.254 0 0 0 .25.276l4.184.06a.245.245 0 0 0 .191-.08.247.247 0 0 0 .069-.19l-.554-7.81a.248.248 0 0 0-.186-.226l-2.883-.786a.254.254 0 0 0-.318.223zm-7.359 6.03.514-2.867c.648.146 2.121.614 2.043 1.417-.098.995-1.75 1.352-2.557 1.45zm.918-4.92.572-3.079c.838.204 1.487.617 1.44 1.398-.049.85-1.168 1.42-2.014 1.678l.002.002z" fill="url(#a)"/><path fill-rule="evenodd" clip-rule="evenodd" d="m24.174 18.48-.032.127a.255.255 0 0 0 .229.317c2.073.134 4.526.22 6.56-.157 1.43-.265 2.966-.841 3.716-2.075.328-.52.487-1.13.457-1.745-.033.503-.19.99-.457 1.419-.75 1.233-2.287 1.81-3.716 2.074-2.033.377-4.487.292-6.56.157a.249.249 0 0 1-.19-.104l-.008-.012v-.002zm8.728-6.374c.037-.026.344-.231.381-.254.962-.694 1.678-1.57 1.74-2.618a3.256 3.256 0 0 0 0-.35c-.036 1.261-1.131 2.27-2.12 2.898-.081.097-.09.273-.001.324zM23.964 5.6l-.013.02a.248.248 0 0 0-.02.222l.916 2.364a.254.254 0 0 0 .274.16l1.715-.255.087-.34-1.8.268a.25.25 0 0 1-.274-.158L23.964 5.6zm16.301 5.796a7.59 7.59 0 0 0 .028.831c.493 5.672 6.108 7.179 10.82 6.723a.245.245 0 0 0 .183-.106.249.249 0 0 0 .039-.208l-.032-.127a.248.248 0 0 1-.191.115c-4.711.454-10.328-1.05-10.82-6.723a7.806 7.806 0 0 1-.027-.509v.004zm6.09-.191a.245.245 0 0 0-.025.158l.462 2.973.053.019-.49-3.15zm-2.258.136c.146-2.313 3.303-2.478 5.837-1.842a.254.254 0 0 0 .31-.195l.745-3.61a.246.246 0 0 0-.03-.182l-.715 3.466a.256.256 0 0 1-.209.198.254.254 0 0 1-.1-.004c-2.59-.648-5.835-.462-5.845 2.002 0 .058.002.114.005.168l.002-.001zM39.89 7.343c.081 1.153-.7 2.078-1.768 2.078-1.085 0-2.055-.953-2.166-2.133a2.257 2.257 0 0 1-.005-.381c.092 1.128.988 2.188 2.17 2.188.965 0 1.697-.755 1.769-1.751zm-4.372 11.084-.019.206a.254.254 0 0 0 .25.275l4.184.06a.253.253 0 0 0 .24-.169.255.255 0 0 0 .014-.102l-.015-.218a.254.254 0 0 1-.241.163l-4.185-.06a.245.245 0 0 1-.228-.155zm-6.565-2.63.454-2.533c.587.133 1.85.528 2.024 1.198a.828.828 0 0 0 .018-.107c.08-.803-1.394-1.27-2.042-1.418l-.514 2.867.06-.008zm.858-4.587.572-3.078c.747.182 1.344.53 1.432 1.158.127-.89-.7-1.307-1.432-1.484l-.572 3.077v.327z" fill="#680C0D"/><path fill-rule="evenodd" clip-rule="evenodd" d="m31.008 34.177-.032.21a1.28 1.28 0 0 1-.455.796 1.36 1.36 0 0 1-.885.307l-6.76-.092a1.359 1.359 0 0 1-.499-.1c-.068.06-.142.112-.22.157-1.75.998-3.706 1.765-5.725 2.052-1.718.245-3.51.136-5.117-.537-3.7-1.55-4.783-5.256-4.447-8.887.245-2.648 1.466-5.167 3.518-6.95 1.886-1.64 4.375-2.355 6.888-2.207 1.555.092 3.515.601 4.856 1.375l.027.016a1.338 1.338 0 0 1 .64-.44c.174-.056.357-.076.54-.06l4.548.4 7.099-1.2.371.655h3.926l3.419-.241 5.043.403c1.906-.418 4.152-.253 6.084 0 .297.04.572.175.781.383.209.21.34.48.37.769a1.34 1.34 0 0 1 .86-.535l4.007-.703a1.379 1.379 0 0 1 1.048.245c.148.109.27.247.36.404.09.157.144.331.16.51.106-.148.243-.274.403-.368a1.36 1.36 0 0 1 .522-.177l4.27-.54a1.378 1.378 0 0 1 1.034.296 1.3 1.3 0 0 1 .338.423c.08.162.126.338.132.518l.578 15.63c.007.199-.033.397-.118.578a1.299 1.299 0 0 1-.372.468 1.376 1.376 0 0 1-1.157.256l-4.06-.952c-.598-.14-.952-.238-1.239-.839l-5.904.313a1.374 1.374 0 0 1-1.006-.36 1.29 1.29 0 0 1-.309-.438 1.255 1.255 0 0 1-.1-.522l.033-1.382c-1.66 1.41-4.284 1.796-6.58 1.628-1.316-.096-2.746-.306-3.999-.706a1.327 1.327 0 0 1-.677-.49l-2.932.865a1.377 1.377 0 0 1-1.03-.1 1.328 1.328 0 0 1-.406-.329 1.278 1.278 0 0 1-.241-.455l-.367-1.259h-1.848l-.42 1.335a1.28 1.28 0 0 1-.247.445c-.111.131-.249.24-.404.32a1.368 1.368 0 0 1-1.02.093l-3.282-.98.003-.001z" fill="#000"/><path fill-rule="evenodd" clip-rule="evenodd" d="m31.573 37.35-.03.203a1.253 1.253 0 0 1-1.257 1.069l-6.346-.089a1.243 1.243 0 0 1-.468-.097c-2.059 1.351-4.908 2.602-7.421 2.475-4.397-.223-7.88-3.722-8.816-8.25.231-2.56 3.057-6.204 4.982-7.928 1.77-1.587 4.106-2.278 6.465-2.136 1.46.087 3.298.58 4.558 1.328l.026.016a1.262 1.262 0 0 1 1.107-.483l4.269.388c.337.03.64.19.854.45.215.26.314.59.279.924l-.719 6.844c.587-.024 1.931-.189 2.42.06l3.007-7.994c.184-.49.648-.81 1.173-.81h3.686c.52 0 .983.315 1.17.8l3.086 7.978c.353-1.081 1.267-.893 2.092-.605a5.034 5.034 0 0 1-1.144-1.062 4.438 4.438 0 0 1-.944-3.039c.143-2.213 1.617-3.449 3.682-3.916 1.79-.404 3.898-.245 5.711 0a1.257 1.257 0 0 1 1.08 1.117 1.25 1.25 0 0 1 .805-.517l3.762-.68c.366-.067.734.03 1.021.265.262.216.423.521.451.855.195-.28.505-.48.868-.528l4.008-.521c.351-.046.702.056.972.285.272.23.43.555.443.91l2.413 13.277c-.509.984-2.027 2.605-2.331 2.853a1.25 1.25 0 0 1-1.087.247l-3.814-.92c-.562-.136-.895-.231-1.163-.812l-5.543.303a1.248 1.248 0 0 1-1.328-1.277l.032-1.338c-1.56 1.362-4.022 1.737-6.177 1.575-1.236-.092-2.578-.294-3.754-.683a1.249 1.249 0 0 1-.635-.474l-2.752.837a1.248 1.248 0 0 1-.966-.098 1.242 1.242 0 0 1-.606-.757l-.346-1.218h-1.733l-.395 1.29a1.24 1.24 0 0 1-.611.74 1.246 1.246 0 0 1-.956.09l-3.08-.948z" fill="#000"/><path fill-rule="evenodd" clip-rule="evenodd" d="m34.736 35.66-3.908-1.204a.3.3 0 0 1-.186-.158c-.04-.079-.066-.938-.033-1.02l4.605-11.413a.31.31 0 0 1 .289-.2h3.938c.13 0 .242.077.29.198l4.528 11.612.094.338.604-3.432a.298.298 0 0 1 .155-.216.301.301 0 0 1 .267-.015c1.273.524 3.573 1.072 4.568.63.195-.087.306-.223.33-.428.072-.608-.719-.762-1.82-1.074-2.35-.667-3.553-2.386-3.436-4.223.247-3.85 5.152-3.732 8.87-3.23.164.021.281.17.266.335l-.354 3.616a.3.3 0 0 1-.154.238.302.302 0 0 1-.284.01c-.8-.371-1.84-.702-2.628-.805-.647-.084-1.124-.013-1.157.314-.035.333.14.551.792.838 1.396.611 2.83.744 3.954 2.014.83.937 1.086 2.15.943 3.51-.344 3.248-3.761 4.267-7.133 4.014-1.343-.101-2.726-.338-3.763-.681-.147-.049-.203-.192-.207-.346l-.013-.5-4.024 1.227a.3.3 0 0 1-.239-.025.302.302 0 0 1-.15-.187l-.581-2.049h-3.392l-.644 2.107a.3.3 0 0 1-.15.183.298.298 0 0 1-.237.021zm32.786 2.911-4.393-1.06a.305.305 0 0 1-.236-.29l-.178-5.503-1.994-.138.058 4.857a.31.31 0 0 1-.29.311l-4.51.27a.3.3 0 0 1-.232-.087c-.064-.061-.059-.152-.062-.242l-.029-.8.348-13.15c.004-.147.075-.256.22-.282l4.02-.727a.302.302 0 0 1 .251.065.3.3 0 0 1 .113.235l.063 5.355h1.904l-.15-4.698a.307.307 0 0 1 .268-.316l4.282-.558c.09-.011.171.013.24.07a.3.3 0 0 1 .11.225l.578 16.152a.298.298 0 0 1-.113.25.3.3 0 0 1-.268.06v.001zm-50.27-12.739c-1.884-.304-3.852.32-4.245 2.97-.34 2.465 1.008 3.651 2.644 3.651 1.266 0 2.717-.237 4.605-1.494a.3.3 0 0 1 .283-.031.314.314 0 0 1 .188.212l1.17 3.777-.012.807c-.001.139-.023.27-.142.34-7.361 4.323-14.53 1.915-13.785-6.642.269-2.723 1.51-5.002 3.191-6.51 1.65-1.479 3.857-2.159 6.157-2.02 1.367.082 3.193.557 4.405 1.277.102.06.157.165.15.283l-.383 6.42a.3.3 0 0 1-.116.222.3.3 0 0 1-.244.063l-4.142-.692a.301.301 0 0 1-.206-.133c-.049-.074-.043-.153-.044-.241l-.008-.797.534-1.462zm5.444 9.717-.01-.817.332-12.622a.302.302 0 0 1 .104-.223.301.301 0 0 1 .233-.078l4.56.414a.298.298 0 0 1 .212.112.297.297 0 0 1 .068.228l-.892 8.494 3.116-.13c.095-.003.218-.79.281-.72.146.282.051.98.037 1.073l-.647 4.416a.307.307 0 0 1-.31.264L23 35.864a.298.298 0 0 1-.218-.094.31.31 0 0 1-.086-.222zm15.53-5.662-.722-3.631-.773 3.657 1.496-.026z" fill="#455A78"/><path fill-rule="evenodd" clip-rule="evenodd" d="m34.736 34.785-3.908-1.203a.3.3 0 0 1-.186-.16.296.296 0 0 1-.012-.243l4.584-12.188a.306.306 0 0 1 .289-.2h3.938c.13 0 .242.076.29.197l4.622 11.95.604-3.431a.298.298 0 0 1 .155-.217.301.301 0 0 1 .267-.015c1.273.525 3.573 1.072 4.568.63.195-.087.306-.223.33-.428.072-.607-.719-.762-1.82-1.074-2.35-.666-3.553-2.386-3.436-4.223.247-3.85 5.152-3.732 8.87-3.23.164.021.281.17.266.335l-.354 3.616a.3.3 0 0 1-.154.238.301.301 0 0 1-.284.011c-.8-.372-1.84-.703-2.628-.805-.647-.084-1.124-.014-1.157.313-.035.333.14.551.792.838 1.396.612 2.83.744 3.954 2.014.83.937 1.086 2.148.943 3.51-.344 3.248-3.761 4.268-7.133 4.014-1.343-.101-2.726-.337-3.763-.681a.305.305 0 0 1-.207-.346l.094-.531-4.131 1.257a.3.3 0 0 1-.239-.024.3.3 0 0 1-.15-.186l-.581-2.05h-3.392l-.644 2.108a.3.3 0 0 1-.15.182.298.298 0 0 1-.237.022zm32.786 2.912-4.393-1.06a.305.305 0 0 1-.236-.29l-.178-5.503-1.994-.138.058 4.857a.309.309 0 0 1-.29.31l-4.51.27a.3.3 0 0 1-.232-.086.298.298 0 0 1-.095-.229l.32-13.95a.306.306 0 0 1 .253-.296l4.019-.726a.3.3 0 0 1 .251.065.3.3 0 0 1 .113.235l.063 5.355h1.904l-.15-4.698a.307.307 0 0 1 .268-.316l4.282-.558a.3.3 0 0 1 .24.07.299.299 0 0 1 .11.224l.578 16.153a.298.298 0 0 1-.113.25.3.3 0 0 1-.268.06zm-50.27-12.739c-1.884-.304-3.852.32-4.245 2.97-.34 2.465 1.008 3.651 2.644 3.651 1.266 0 2.717-.238 4.605-1.494a.3.3 0 0 1 .283-.031.299.299 0 0 1 .188.212l1.158 4.584a.304.304 0 0 1-.142.34c-7.361 4.323-14.53 1.915-13.785-6.642.269-2.723 1.51-5.003 3.191-6.51 1.65-1.479 3.857-2.159 6.157-2.02 1.367.081 3.193.556 4.405 1.277a.3.3 0 0 1 .15.283l-.383 6.42a.3.3 0 0 1-.116.222.3.3 0 0 1-.244.063l-4.142-.693a.298.298 0 0 1-.206-.132.299.299 0 0 1-.044-.241l.526-2.258zm5.444 9.717.322-13.44a.3.3 0 0 1 .104-.223.301.301 0 0 1 .233-.077l4.56.414a.299.299 0 0 1 .212.111.295.295 0 0 1 .068.227l-.892 8.495 3.116-.129a.3.3 0 0 1 .242.102c.064.07.09.157.076.25l-.647 4.416a.307.307 0 0 1-.31.264L23 34.99a.299.299 0 0 1-.218-.094.296.296 0 0 1-.086-.221zm15.53-5.663-.722-3.631-.773 3.658 1.496-.027z" fill="#A7BAD7"/><path fill-rule="evenodd" clip-rule="evenodd" d="M34.754 34.725c.066.02.128.015.189-.018.06-.031.1-.08.12-.145l.658-2.15h3.485l.595 2.093c.019.067.058.116.12.15.06.033.123.039.19.018l4.227-1.287-.111.631a.244.244 0 0 0 .166.277c1.169.387 2.518.586 3.748.678 2.871.215 6.7-.496 7.065-3.958.133-1.253-.067-2.493-.926-3.463-1.11-1.252-2.5-1.37-3.934-1.999-.393-.172-.88-.397-.829-.9.051-.494.9-.412 1.228-.37.853.111 1.866.448 2.646.812a.24.24 0 0 0 .227-.01.237.237 0 0 0 .124-.19l.352-3.616a.247.247 0 0 0-.212-.267c-2.857-.386-8.537-.912-8.799 3.173-.136 2.124 1.452 3.609 3.392 4.16.43.122.956.24 1.359.429.303.143.548.346.505.71-.027.232-.156.384-.367.478-1.095.487-3.544-.186-4.617-.63a.239.239 0 0 0-.213.013.236.236 0 0 0-.124.173l-.642 3.651-4.704-12.158a.243.243 0 0 0-.23-.158h-3.94a.241.241 0 0 0-.23.16l-4.584 12.189a.234.234 0 0 0 .01.194c.03.064.08.106.148.127l3.907 1.203h.001zm3.548-5.652-1.648.029.852-4.03.796 4zm29.235 8.563c.078.02.152.002.214-.049a.236.236 0 0 0 .09-.199l-.578-16.151a.238.238 0 0 0-.087-.18.24.24 0 0 0-.192-.056l-4.282.558a.246.246 0 0 0-.215.252l.154 4.762h-2.03l-.065-5.416a.235.235 0 0 0-.09-.187.235.235 0 0 0-.2-.052l-4.02.726a.243.243 0 0 0-.202.237l-.319 13.95a.236.236 0 0 0 .076.182c.052.05.114.073.185.068l4.51-.269a.246.246 0 0 0 .231-.249l-.058-4.923 2.117.146.18 5.56a.243.243 0 0 0 .188.231l4.393 1.06zM17.328 24.908l-.54 2.322a.236.236 0 0 0 .034.192.24.24 0 0 0 .165.107l4.142.692a.237.237 0 0 0 .195-.05.235.235 0 0 0 .092-.178l.384-6.42a.24.24 0 0 0-.12-.226c-1.195-.71-2.993-1.186-4.378-1.27-2.226-.133-4.437.506-6.11 2.006-1.852 1.66-2.95 4.008-3.17 6.47-.295 3.262.549 6.682 3.805 8.088 1.423.613 3.02.698 4.54.476 1.882-.275 3.711-1.022 5.344-1.981a.242.242 0 0 0 .114-.273l-1.158-4.583a.238.238 0 0 0-.15-.17.238.238 0 0 0-.226.026c-1.465.974-2.873 1.504-4.64 1.504-.813 0-1.59-.29-2.116-.924-.643-.777-.727-1.837-.59-2.797.155-1.081.611-2.076 1.59-2.64.817-.471 1.813-.531 2.727-.383l.066.01v.002zm5.431 9.768a.235.235 0 0 0 .069.176c.048.05.105.075.174.076l6.779.094a.244.244 0 0 0 .248-.21l.648-4.415a.24.24 0 0 0-.061-.201.244.244 0 0 0-.194-.082l-3.187.133.9-8.566a.235.235 0 0 0-.056-.182.235.235 0 0 0-.168-.089l-4.56-.413a.237.237 0 0 0-.187.061.234.234 0 0 0-.083.178l-.322 13.44z" fill="url(#b)"/><path fill-rule="evenodd" clip-rule="evenodd" d="m34.738 34.785-3.908-1.203a.3.3 0 0 1-.186-.16.296.296 0 0 1-.012-.243l.03-.083c1.665-.045 3.311-.067 4.938-.07l-.476 1.555a.3.3 0 0 1-.15.182.298.298 0 0 1-.236.022zm19.108-1.076c-1.378 1.13-3.552 1.488-5.708 1.326-1.344-.101-2.726-.338-3.764-.682a.302.302 0 0 1-.207-.345l.124-.606-4.161 1.332a.297.297 0 0 1-.239-.024.302.302 0 0 1-.149-.187l-.419-1.475a241.75 241.75 0 0 1 14.523.661zm13.98 1.44c-1.436-.19-3.11-.398-4.99-.606l.059 1.804c.004.14.099.257.235.29l4.394 1.06a.3.3 0 0 0 .268-.061.298.298 0 0 0 .113-.25l-.08-2.236zm-7.06-.826c-1.578-.162-3.27-.32-5.066-.469l-.045 1.974a.298.298 0 0 0 .095.23.3.3 0 0 0 .233.085l4.508-.27a.308.308 0 0 0 .29-.31l-.014-1.24zm-30.422-1.217c-2.512.072-5.059.194-7.617.377l-.029 1.192a.297.297 0 0 0 .087.221.3.3 0 0 0 .218.095l6.779.095a.307.307 0 0 0 .31-.264l.252-1.716zm-8.78.462c-4.015.314-8.05.778-12.024 1.432 2.439 2.961 7.278 3.084 12.205.191a.305.305 0 0 0 .142-.34l-.323-1.283z" fill="#D2DDEE"/><path fill-rule="evenodd" clip-rule="evenodd" d="m54.098 21.88-.295 3.02a.3.3 0 0 1-.155.238.301.301 0 0 1-.284.012c-.8-.372-1.84-.704-2.628-.806-.503-.065-.904-.037-1.072.133l-.49-.14c.608-1.25 3.996.004 3.996.004l.479-2.802c.16.057.312.178.449.341zM54.347 27.532c.814.934 1.065 2.138.922 3.488-.344 3.247-3.76 4.267-7.132 4.014a20.149 20.149 0 0 1-1.859-.226c-.027-.28-.042-.489-.042-.489 9.902 1.322 8.897-5.328 7.472-6.757 0 0 .29-.093.639-.03zM23.477 22.063l-.038 12.233 4.89.374-3.256.349-2.073-.03a.298.298 0 0 1-.197-.073l-.082-1.317.209-8.683.547-2.853zM16.336 32.045c.595-.017 2.166-.144 3.738-.942l1.056 3.623s-4.069 2.765-9.124 2.052c2.602 1.027 6.147.52 9.738-1.588a.305.305 0 0 0 .142-.34l-1.158-4.585a.299.299 0 0 0-.189-.211.3.3 0 0 0-.282.03c-1.469.978-2.89 1.537-4.677 1.494a21.75 21.75 0 0 1-.765.383c.376.063 1.264.092 1.521.084z" fill="#FDFDFE"/><path fill-rule="evenodd" clip-rule="evenodd" d="m20.737 30.297-.008-.032a.299.299 0 0 0-.188-.211.3.3 0 0 0-.283.03c-1.468.978-2.89 1.537-4.676 1.494a21.75 21.75 0 0 1-.766.383s3.167.361 5.507-1.347a9.67 9.67 0 0 0 .414-.317z" fill="#FDFDFE"/><path fill-rule="evenodd" clip-rule="evenodd" d="m44.355 32.938.604-3.43a.3.3 0 0 1 .155-.217.301.301 0 0 1 .267-.015c1.273.524 3.573 1.072 4.568.63.195-.087.306-.223.33-.428.072-.608-.719-.762-1.82-1.074-2.35-.667-3.553-2.386-3.436-4.223.247-3.85 5.152-3.733 8.87-3.23.163.021.28.17.265.335l-.353 3.615a.3.3 0 0 1-.154.238.302.302 0 0 1-.284.012c-.8-.372-1.841-.703-2.628-.806-.647-.084-1.124-.013-1.157.314-.035.333.139.551.79.838 1.397.611 2.831.744 3.956 2.014.83.937 1.086 2.148.942 3.51-.344 3.248-3.76 4.267-7.132 4.014-1.343-.101-2.726-.338-3.763-.682a.305.305 0 0 1-.207-.345l.093-.532.094-.538zm.513-.147-.203 1.153c1.103.347 2.363.527 3.508.613 2.62.197 6.281-.384 6.62-3.586.12-1.134-.046-2.264-.826-3.144-1.02-1.152-2.451-1.307-3.787-1.893-.587-.257-1.151-.6-1.077-1.324.084-.818 1.087-.819 1.697-.74.819.107 1.767.407 2.55.748l.314-3.216c-1.706-.223-3.742-.377-5.403-.002-1.546.35-2.652 1.133-2.76 2.812-.123 1.924 1.343 3.236 3.089 3.731.794.226 2.297.468 2.164 1.59-.044.379-.266.656-.611.81-1.166.518-3.488-.063-4.75-.547l-.526 2.995h.001z" fill="#B1C2DD"/><path fill-rule="evenodd" clip-rule="evenodd" d="M60.437 26.989a3.7 3.7 0 0 0 .467-.479h-.228l-.063-5.354a.3.3 0 0 0-.113-.235.306.306 0 0 0-.136-.066 3.526 3.526 0 0 0-.228.507l.066 5.627h.235z" fill="url(#c)"/><path fill-rule="evenodd" clip-rule="evenodd" d="m37.262 24.202.144 1.64.098-.462.722 3.632-.158.003.432.471.308-.005-1.291-6.488-.255 1.21z" fill="url(#d)"/><path fill-rule="evenodd" clip-rule="evenodd" d="m38.22 28.97.552.512-2.633.046.006-.026.617-.602-.029.139 1.495-.027-.009-.043z" fill="url(#e)"/><path fill-rule="evenodd" clip-rule="evenodd" d="m62.715 30.919.468-.37-.005-.153-2.944-.203.061 5.213-4.16.248.01-.447a5.204 5.204 0 0 0-.465.762.307.307 0 0 0 .065.088.3.3 0 0 0 .233.088l4.511-.262a.308.308 0 0 0 .29-.311l-.06-4.866 1.994.138.003.075z" fill="url(#f)"/><path fill-rule="evenodd" clip-rule="evenodd" d="m67.212 21.005-.356.491.562 15.682-4.048-.977c-.207-.012-.275.094-.431.294.04.07.108.122.193.143l4.391 1.067c.097.024.19.003.268-.061a.297.297 0 0 0 .114-.25l-.578-16.16a.292.292 0 0 0-.109-.225l-.006-.004z" fill="url(#g)"/><path fill-rule="evenodd" clip-rule="evenodd" d="m67.2 20.994-.401.451-3.886.507.162 5.036h-2.791l.42-.477h1.877l-.152-4.698a.308.308 0 0 1 .27-.316l4.282-.558a.299.299 0 0 1 .22.055H67.2z" fill="url(#h)"/><path fill-rule="evenodd" clip-rule="evenodd" d="m60.485 20.91-.35.453-3.683.666-.311 13.613-.38.425-.01-.01a.299.299 0 0 1-.094-.228l.32-13.95a.305.305 0 0 1 .253-.296l4.019-.727a.299.299 0 0 1 .236.054z" fill="url(#i)"/><path fill-rule="evenodd" clip-rule="evenodd" d="M54.079 27.252c.084.08.168.167.248.258.831.938 1.087 2.15.943 3.51-.344 3.248-3.757 4.274-7.128 4.02-1.344-.1-2.73-.343-3.767-.686a.306.306 0 0 1-.207-.346l.032-.182c.167-.083.348-.153.524-.21l-.058.328c1.103.347 2.362.527 3.508.613 2.62.197 6.28-.383 6.62-3.586.119-1.134-.046-2.264-.825-3.144a3.682 3.682 0 0 0-.26-.265l.37-.31z" fill="url(#j)"/><path fill-rule="evenodd" clip-rule="evenodd" d="M54.042 21.014a.31.31 0 0 1 .115.27l-.353 3.617a.3.3 0 0 1-.155.238.301.301 0 0 1-.283.01c-.8-.371-1.841-.702-2.629-.805-.647-.084-1.124-.013-1.157.314-.035.333.14.551.791.838 1.117.488 2.256.671 3.243 1.373-.25.02-.542.038-.854.05-.809-.406-1.715-.605-2.581-.985-.586-.257-1.151-.601-1.077-1.325.085-.818 1.087-.818 1.697-.74.819.107 1.767.407 2.55.748l.315-3.216-.082-.01.46-.377z" fill="url(#k)"/><path fill-rule="evenodd" clip-rule="evenodd" d="M47.95 28.236c-2.015-.757-3.037-2.356-2.928-4.055.248-3.85 5.152-3.733 8.87-3.23.09.011.166.061.213.13l-.473.318c-1.7-.221-3.72-.372-5.37.001-1.546.35-2.653 1.133-2.76 2.812-.112 1.742 1.08 2.982 2.602 3.569-.04.167-.097.323-.154.455z" fill="url(#l)"/><path fill-rule="evenodd" clip-rule="evenodd" d="m44.356 32.938.18-1.03.423-2.4a.298.298 0 0 1 .156-.218.3.3 0 0 1 .267-.014c1.273.524 3.573 1.071 4.568.63.195-.087.305-.223.33-.429v-.007l.468.12c-.059.35-.274.606-.603.752-1.166.519-3.487-.063-4.75-.546l-.526 2.994-.203 1.154.018.006c-.153.092-.311.191-.462.292a.303.303 0 0 1-.054-.234l.047-.267.047-.265.094-.538z" fill="url(#m)"/><path fill-rule="evenodd" clip-rule="evenodd" d="m37.505 25.38-.772 3.658-.594.49 1.38-6.534-.014 2.386z" fill="url(#n)"/><path fill-rule="evenodd" clip-rule="evenodd" d="M39.391 20.791h.053c.13 0 .241.077.288.198l4.623 11.95-.094.537-4.13 1.258a.3.3 0 0 1-.273-.045l.299-.463 3.742-1.14-4.572-11.816h-.317c.102-.157.23-.332.381-.479z" fill="url(#o)"/><path fill-rule="evenodd" clip-rule="evenodd" d="m34.74 34.785-3.907-1.204a.3.3 0 0 1-.186-.159c-.03-.057-.038-.117-.03-.178.185-.184.477-.32.653-.391l-.122.325 3.57 1.099.698-2.282h3.97l-.221.485-.002-.006h-3.392l-.644 2.107a.3.3 0 0 1-.15.182.298.298 0 0 1-.236.022z" fill="url(#p)"/><path fill-rule="evenodd" clip-rule="evenodd" d="M30.628 33.379a.301.301 0 0 1 .007-.2l4.583-12.188a.306.306 0 0 1 .29-.2h3.938c.058 0 .112.015.158.043l-.277.436h-3.7l-4.48 11.908.03.009-.549.192z" fill="url(#q)"/><path fill-rule="evenodd" clip-rule="evenodd" d="m27.337 30.181-.563.486.93-8.857-.217-.02c.046-.172.095-.33.146-.468l.286.027a.299.299 0 0 1 .211.111.295.295 0 0 1 .069.227l-.892 8.495.03-.001z" fill="url(#r)"/><path fill-rule="evenodd" clip-rule="evenodd" d="m30.655 30.147-.424.409-.594 4.049-6.457-.09.003-.107a5.177 5.177 0 0 0-.428.454.31.31 0 0 0 .028.033c.06.062.131.1.217.1l6.783.096a.307.307 0 0 0 .31-.263l.645-4.423a.296.296 0 0 0-.076-.25l-.007-.008z" fill="url(#s)"/><path fill-rule="evenodd" clip-rule="evenodd" d="m28.134 21.465-.432.352v-.008l-4.205-.38-.314 13.085h.035l-.414.4a.296.296 0 0 1-.105-.24l.322-13.44a.3.3 0 0 1 .104-.223.301.301 0 0 1 .233-.076l4.56.413a.299.299 0 0 1 .212.112l.004.005z" fill="url(#t)"/><path fill-rule="evenodd" clip-rule="evenodd" d="M17.037 24.927c.158-.148.325-.294.482-.411l.319.051-.601 2.58.423.07a9.408 9.408 0 0 1-.158.46l-.523-.088a.298.298 0 0 1-.206-.133.3.3 0 0 1-.044-.24l.526-2.258a5.622 5.622 0 0 0-.218-.03z" fill="url(#u)"/><path fill-rule="evenodd" clip-rule="evenodd" d="m17.836 24.567-.506-.081c-1.013-.164-2.1-.087-3.004.434-1.091.63-1.62 1.731-1.793 2.94-.155 1.084-.04 2.25.681 3.122.445.536.943.842 1.602.979l.271-.432c-1.365-.248-2.377-1.427-2.08-3.6.394-2.652 2.362-3.276 4.246-2.971l.583-.39z" fill="url(#v)"/><path fill-rule="evenodd" clip-rule="evenodd" d="m21.704 21.288-.41.318.085.047-.366 6.126-3.775-.632a1.953 1.953 0 0 0-.5.238.298.298 0 0 0 .242.204l4.142.693a.3.3 0 0 0 .243-.063.3.3 0 0 0 .116-.223l.383-6.419a.3.3 0 0 0-.15-.283l-.01-.006z" fill="url(#w)"/><path fill-rule="evenodd" clip-rule="evenodd" d="m20.324 30.614 1.068 4.228c-1.558.9-3.297 1.602-5.084 1.864-1.44.21-2.963.135-4.312-.447-2.197-.949-3.209-2.88-3.51-5.026l-.51-.247c.584 5.34 4.985 7.39 10.176 5.84 1.169-.349 2.377-.88 3.591-1.592a.35.35 0 0 0 .149-.371l-1.162-4.598a.3.3 0 0 0-.188-.211c-.131.113-.193.416-.218.56z" fill="url(#x)"/><path fill-rule="evenodd" clip-rule="evenodd" d="M21.774 21.344c-.054.064-.164.189-.399.309-1.136-.647-2.816-1.081-4.099-1.159-2.115-.128-4.217.475-5.807 1.9-1.773 1.588-2.821 3.84-3.033 6.197-.092 1.02-.07 2.064.113 3.048l-.363.578c-.26-1.06-.348-2.284-.228-3.67.268-2.722 1.509-5.002 3.19-6.509 1.65-1.479 3.858-2.159 6.157-2.02 1.367.081 3.194.556 4.405 1.277.024.014.046.03.064.05v-.001z" fill="url(#y)"/><path fill-rule="evenodd" clip-rule="evenodd" d="m21.018 24.89-.218 2.607-3.564-.35 3.775.632.167-2.779-.16-.11z" fill="#FDFDFE"/><path fill-rule="evenodd" clip-rule="evenodd" d="M15.038 31.52c-1.229.651-2.646 1.214-4.218 1.825 1.21-.959 2.074-1.778 2.978-2.443.343.32.77.525 1.24.618z" fill="#455A78"/><path fill-rule="evenodd" clip-rule="evenodd" d="m14.383 31.3-3.686 2.1c1.692-.485 3.465-1.047 4.886-1.822a2.865 2.865 0 0 1-1.2-.278zM41.3 26.37l2.34 6.598-3.35 1.135 3.609-1.017-2.6-6.717zM38.628 31.995l-3.41-.178-.734 2.105-3.342-.744 3.57 1.099.698-2.282h3.218zM60.238 30.275l-.129 4.942-3.97.424 4.16-.235-.061-5.13zM63.187 30.473l.184 5.729 4.048.977-.307-8.573.079 8.272-3.644-.836-.36-5.57z" fill="#FDFDFE"/><path fill-rule="evenodd" clip-rule="evenodd" d="m67.518 27.485-2.386 1.7-.031-.003 1.958-1.982.459.285z" fill="#455A78"/><path fill-rule="evenodd" clip-rule="evenodd" d="m67.55 27.464-2.445 1.725.01.027 1.981-1.003.453-.75z" fill="#D9E3F1"/><path fill-rule="evenodd" clip-rule="evenodd" d="m67.47 25.305-1.434 1.019.958-.919.476-.1z" fill="#455A78"/><path fill-rule="evenodd" clip-rule="evenodd" d="m67.473 25.305-1.459 1.03 1-.476.459-.554z" fill="#D9E3F1"/><path fill-rule="evenodd" clip-rule="evenodd" d="m62.909 21.952.162 5.037h-2.873l3.1.196-.39-5.233z" fill="#FEFEFE"/><path fill-rule="evenodd" clip-rule="evenodd" d="m54.98 28.463-6.227 3.687-.031-.003 5.475-3.827.783.143z" fill="#455A78"/><path fill-rule="evenodd" clip-rule="evenodd" d="m54.981 28.463-6.255 3.691.01.026 5.879-2.995.366-.722zM46.559 27.47l2.379-1.694.03.004-1.976 1.992-.433-.301z" fill="#FDFDFE"/><path fill-rule="evenodd" clip-rule="evenodd" d="m46.56 27.47 2.407-1.698-.01-.027-2.768 1.402.37.324z" fill="#455A78"/><path fill-rule="evenodd" clip-rule="evenodd" d="m8.002 28.161 5.27-3.258.045.007-5.396 4.182c.009-.18.02-.36.036-.545.013-.13.028-.258.045-.386z" fill="#FDFDFE"/><path fill-rule="evenodd" clip-rule="evenodd" d="m8.001 28.164 5.312-3.265-.013-.04-5.174 2.565c-.05.242-.091.49-.125.74z" fill="#455A78"/><path fill-rule="evenodd" clip-rule="evenodd" d="m60.63 22.816-3.047 2.213-.041-.005 2.62-2.651.468.443z" fill="#91A4C3"/><path fill-rule="evenodd" clip-rule="evenodd" d="m60.628 22.816-3.084 2.219.013.035 2.603-1.327.468-.927z" fill="#FBFCFD"/><defs><linearGradient id="m" x1="47.467" y1="34.054" x2="47.461" y2="29.349" gradientUnits="userSpaceOnUse"><stop stop-color="#B5C6E0"/><stop offset="1" stop-color="#FEFEFE"/></linearGradient><linearGradient id="a" x1="37.627" y1="5.156" x2="37.638" y2="19.037" gradientUnits="userSpaceOnUse"><stop stop-color="#EE3636"/><stop offset="1" stop-color="#FF5C5C"/></linearGradient><linearGradient id="c" x1="60.25" y1="21.658" x2="61.644" y2="22.08" gradientUnits="userSpaceOnUse"><stop stop-color="#A4B8D6"/><stop offset="1" stop-color="#5D7190"/></linearGradient><linearGradient id="d" x1="38.645" y1="26.263" x2="37.237" y2="26.198" gradientUnits="userSpaceOnUse"><stop stop-color="#A4B8D6"/><stop offset="1" stop-color="#C2D1E7"/></linearGradient><linearGradient id="e" x1="36.425" y1="29.149" x2="38.822" y2="29.445" gradientUnits="userSpaceOnUse"><stop stop-color="#B5C6E0"/><stop offset="1" stop-color="#FEFEFE"/></linearGradient><linearGradient id="f" x1="58.068" y1="36.922" x2="59.635" y2="30.872" gradientUnits="userSpaceOnUse"><stop stop-color="#A4B8D6"/><stop offset="1" stop-color="#5D7190"/></linearGradient><linearGradient id="g" x1="65.467" y1="25.024" x2="65.467" y2="37.222" gradientUnits="userSpaceOnUse"><stop stop-color="#A4B8D6"/><stop offset="1" stop-color="#5D7190"/></linearGradient><linearGradient id="h" x1="63.876" y1="26.515" x2="63.823" y2="20.765" gradientUnits="userSpaceOnUse"><stop stop-color="#B5C6E0"/><stop offset="1" stop-color="#FEFEFE"/></linearGradient><linearGradient id="i" x1="58.134" y1="35.496" x2="57.179" y2="21.098" gradientUnits="userSpaceOnUse"><stop stop-color="#B5C6E0"/><stop offset="1" stop-color="#FEFEFE"/></linearGradient><linearGradient id="j" x1="49.679" y1="29.433" x2="49.679" y2="35.146" gradientUnits="userSpaceOnUse"><stop stop-color="#A4B8D6"/><stop offset="1" stop-color="#5D7190"/></linearGradient><linearGradient id="k" x1="53.729" y1="25.081" x2="50.565" y2="22.615" gradientUnits="userSpaceOnUse"><stop stop-color="#A4B8D6"/><stop offset="1" stop-color="#5D7190"/></linearGradient><linearGradient id="l" x1="49.597" y1="28.03" x2="49.597" y2="20.943" gradientUnits="userSpaceOnUse"><stop stop-color="#B5C6E0"/><stop offset="1" stop-color="#FEFEFE"/></linearGradient><linearGradient id="b" x1="37.983" y1="35.065" x2="37.983" y2="21.35" gradientUnits="userSpaceOnUse"><stop stop-color="#C8D6EA"/><stop offset=".22" stop-color="#9CB1D0"/><stop offset=".51" stop-color="#C3D2E8"/><stop offset="1" stop-color="#fff"/></linearGradient><linearGradient id="n" x1="36.738" y1="24.991" x2="36.738" y2="29.761" gradientUnits="userSpaceOnUse"><stop stop-color="#A4B8D6"/><stop offset="1" stop-color="#5D7190"/></linearGradient><linearGradient id="o" x1="41.62" y1="24.388" x2="41.62" y2="34.576" gradientUnits="userSpaceOnUse"><stop stop-color="#A4B8D6"/><stop offset="1" stop-color="#5D7190"/></linearGradient><linearGradient id="p" x1="34.881" y1="31.863" x2="35.335" y2="34.716" gradientUnits="userSpaceOnUse"><stop stop-color="#A4B8D6"/><stop offset="1" stop-color="#5D7190"/></linearGradient><linearGradient id="q" x1="35.131" y1="32.909" x2="35.1" y2="21.046" gradientUnits="userSpaceOnUse"><stop stop-color="#B5C6E0"/><stop offset="1" stop-color="#FEFEFE"/></linearGradient><linearGradient id="r" x1="27.549" y1="23.073" x2="30.921" y2="26.728" gradientUnits="userSpaceOnUse"><stop stop-color="#A4B8D6"/><stop offset="1" stop-color="#5D7190"/></linearGradient><linearGradient id="s" x1="24.863" y1="30.927" x2="29.756" y2="35.132" gradientUnits="userSpaceOnUse"><stop stop-color="#A4B8D6"/><stop offset="1" stop-color="#5D7190"/></linearGradient><linearGradient id="t" x1="25.451" y1="34.394" x2="25.39" y2="21.217" gradientUnits="userSpaceOnUse"><stop stop-color="#B5C6E0"/><stop offset="1" stop-color="#FEFEFE"/></linearGradient><linearGradient id="u" x1="17.173" y1="25.093" x2="17.829" y2="27.123" gradientUnits="userSpaceOnUse"><stop stop-color="#B5C6E0"/><stop offset="1" stop-color="#FEFEFE"/></linearGradient><linearGradient id="v" x1="13.311" y1="30.613" x2="16.217" y2="23.863" gradientUnits="userSpaceOnUse"><stop stop-color="#A4B8D6"/><stop offset="1" stop-color="#5D7190"/></linearGradient><linearGradient id="w" x1="19.199" y1="22.974" x2="19.199" y2="28.083" gradientUnits="userSpaceOnUse"><stop stop-color="#A4B8D6"/><stop offset="1" stop-color="#5D7190"/></linearGradient><linearGradient id="x" x1="19.97" y1="34.782" x2="8.786" y2="30.654" gradientUnits="userSpaceOnUse"><stop stop-color="#A4B8D6"/><stop offset="1" stop-color="#C2D1E7"/></linearGradient><linearGradient id="y" x1="14.05" y1="30.973" x2="15.385" y2="21.046" gradientUnits="userSpaceOnUse"><stop stop-color="#C2D1E7"/><stop offset="1" stop-color="#FEFEFE"/></linearGradient></defs></svg>
