<svg width="759" height="334" viewBox="0 0 759 334" fill="none" xmlns="http://www.w3.org/2000/svg">
<path fill-rule="evenodd" clip-rule="evenodd" d="M582.262 31.4488C590.925 30.1107 598.153 32.6395 603.947 39.0398C607.491 40.1112 611.106 40.4712 614.79 40.1242C612.81 43.5639 612.81 46.8172 614.79 49.8839C619.806 51.3197 624.865 52.4041 629.97 53.1372C629.97 53.8594 629.97 54.5838 629.97 55.306C630.254 56.9088 629.892 58.3554 628.886 59.6437C625.648 55.1759 621.673 54.4536 616.959 57.4748C623.727 65.9528 628.788 75.3525 632.139 85.6696C624.423 75.3416 617.195 64.4975 610.453 53.1372C606.068 46.943 600.647 41.8831 594.189 37.9553C594.67 42.1976 596.477 46.1752 599.61 49.8839C597.494 54.5404 597.856 59.2402 600.695 63.9813C605.927 78.0722 612.795 91.0852 621.296 103.02C620.574 103.02 619.85 103.02 619.127 103.02C613.116 94.8221 605.888 88.3156 597.442 83.5008C596.119 81.5684 595.397 79.3995 595.273 76.9943C596.861 71.9431 595.416 67.2432 590.936 62.8969C587.798 50.9965 584.907 40.5146 582.262 31.4488Z" fill="#684C4C"/>
<path opacity="0.824" fill-rule="evenodd" clip-rule="evenodd" d="M655.993 22.7734C657.44 22.7734 658.162 23.4957 658.162 24.9423C652.712 31.503 648.375 38.7317 645.151 46.6306C645.435 45.0278 645.073 43.5812 644.066 42.2929C641.176 46.6306 638.283 50.9682 635.392 55.3059C633.937 53.6749 632.13 52.9506 629.971 53.1371C624.866 52.404 619.806 51.3196 614.791 49.8838C612.811 46.8171 612.811 43.5639 614.791 40.1241C622.697 41.8223 630.647 42.1845 638.645 41.2085C643.344 33.9798 649.128 27.8355 655.993 22.7734Z" fill="#8D6B62"/>
<path fill-rule="evenodd" clip-rule="evenodd" d="M582.26 31.4453C584.906 40.511 587.797 50.993 590.935 62.8934C595.415 67.2397 596.859 71.9396 595.272 76.9908C585.188 66.5652 579.406 53.9144 577.923 39.0362C577.678 35.3514 579.122 32.8204 582.26 31.4453Z" fill="#8A7983"/>
<path opacity="0.271" fill-rule="evenodd" clip-rule="evenodd" d="M716.713 74.8236C714.545 74.8236 712.376 74.8236 710.207 74.8236C712.636 66.5473 712.636 58.5942 710.207 50.9664C707.872 44.7245 704.257 39.3024 699.365 34.7002C689.556 30.8028 679.435 28.2718 669.005 27.1093C664.763 23.4765 661.872 24.1987 660.33 29.2781C658.513 28.5364 657.789 27.0919 658.162 24.9404C658.162 23.4938 657.44 22.7716 655.993 22.7716C660.163 17.5816 664.5 17.9438 669.005 23.856C687.637 23.9601 703.177 30.8267 715.629 44.4599C716.711 54.5558 717.073 64.6756 716.713 74.8236Z" fill="#CBB097"/>
<path fill-rule="evenodd" clip-rule="evenodd" d="M669.004 27.1085C668.792 30.1059 668.792 33.3591 669.004 36.8683C673.925 36.0571 678.984 36.0571 684.184 36.8683C688.884 40.1215 693.581 43.3748 698.28 46.628C699.887 53.269 699.527 59.7755 697.196 66.1475C701.774 69.0711 705.751 68.3489 709.123 63.9787C710.196 59.6996 710.559 55.3619 710.207 50.9657C712.636 58.5935 712.636 66.5466 710.207 74.8228C710.207 75.545 710.207 76.2694 710.207 76.9917C704.942 81.5766 701.329 87.3608 699.364 94.3423C696.224 96.1945 693.334 98.3633 690.69 100.849C689.968 99.7644 689.244 98.68 688.522 97.5955C692.308 89.2499 695.923 80.9368 699.364 72.654C696.786 70.6391 693.895 69.9169 690.69 70.4852C690.237 67.4011 689.153 64.51 687.437 61.8098C679.392 53.7635 671.44 45.8104 663.583 37.9527C662.694 34.9142 661.61 32.0231 660.33 29.2774C661.872 24.198 664.763 23.4757 669.004 27.1085Z" fill="#D59F60"/>
<path fill-rule="evenodd" clip-rule="evenodd" d="M669.005 27.1094C679.436 28.2719 689.557 30.8029 699.365 34.7003C704.257 39.3025 707.872 44.7246 710.208 50.9665C710.559 55.3627 710.197 59.7004 709.124 63.9795C705.752 68.3497 701.774 69.0719 697.197 66.1483C699.528 59.7763 699.888 53.2698 698.281 46.6289C693.582 43.3756 688.884 40.1224 684.185 36.8691C678.985 36.058 673.926 36.058 669.005 36.8691C668.793 33.3599 668.793 30.1067 669.005 27.1094Z" fill="#8E542F"/>
<path fill-rule="evenodd" clip-rule="evenodd" d="M658.161 24.9453C657.788 27.0968 658.513 28.5412 660.33 29.283C661.609 32.0287 662.694 34.9198 663.583 37.9583C671.439 45.816 679.392 53.7691 687.437 61.8154C689.152 64.5156 690.237 67.4067 690.69 70.4908C686.94 71.8289 683.688 73.9978 680.931 76.9973C679.309 87.8002 678.225 98.6444 677.678 109.53C674.595 109.076 671.704 107.992 669.004 106.276C674.395 104.747 674.395 102.941 669.004 100.854C669.442 95.4562 668.358 90.3941 665.751 85.6726C657.671 79.0338 651.165 71.0807 646.234 61.8154C645.156 56.8054 644.796 51.7456 645.15 46.6336C648.374 38.7347 652.712 31.506 658.161 24.9453Z" fill="#7A472E"/>
<path fill-rule="evenodd" clip-rule="evenodd" d="M98.6706 81.3317C97.3317 81.5725 96.2474 82.2947 95.4177 83.5006C92.0395 79.4687 88.0639 76.2155 83.4906 73.7408C62.5502 71.1708 41.5875 69.7241 20.602 69.4032C18.7079 71.6696 16.5393 73.4762 14.0963 74.8252C13.7095 65.3865 18.4081 61.0488 28.192 61.8123C47.3717 64.185 66.5274 66.7138 85.6591 69.4032C92.4708 70.9539 96.808 74.9293 98.6706 81.3317Z" fill="#7D6754"/>
<path fill-rule="evenodd" clip-rule="evenodd" d="M645.15 46.6267C644.796 51.7387 645.156 56.7985 646.234 61.8085C651.165 71.0738 657.671 79.0269 665.751 85.6657C668.358 90.3872 669.442 95.4493 669.004 100.848C666.688 102.873 663.797 103.598 660.33 103.016C654.093 94.0244 646.141 86.7935 636.475 81.328C634.506 72.9086 632.338 64.2333 629.97 55.302C629.97 54.5798 629.97 53.8554 629.97 53.1332C632.13 52.9467 633.936 53.6711 635.391 55.302C638.282 50.9644 641.175 46.6267 644.065 42.2891C645.072 43.5773 645.434 45.024 645.15 46.6267Z" fill="#553126"/>
<path fill-rule="evenodd" clip-rule="evenodd" d="M629.97 55.3047C632.338 64.2359 634.507 72.9113 636.476 81.3307C646.141 86.7961 654.094 94.027 660.33 103.019C660.805 105.567 660.083 107.736 658.162 109.525C653.172 107.736 648.111 106.29 642.982 105.188C639.883 98.2562 636.27 91.7497 632.139 85.6683C628.789 75.3512 623.727 65.9515 616.959 57.4735C621.673 54.4523 625.648 55.1746 628.886 59.6423C629.892 58.3541 630.254 56.9075 629.97 55.3047Z" fill="#3B1712"/>
<path fill-rule="evenodd" clip-rule="evenodd" d="M710.207 74.8281C712.376 74.8281 714.544 74.8281 716.713 74.8281C730.592 80.7577 739.991 90.8796 744.904 105.192C742.326 114.555 742.326 123.952 744.904 133.387C743.458 133.387 742.014 133.387 740.567 133.387C740.181 127.496 739.097 121.712 737.314 116.036C729.167 112.516 720.853 109.263 712.376 106.276C708.626 102.396 707.18 97.6963 708.039 92.1788C708.416 87.0582 709.138 81.9983 710.207 76.997C710.207 76.2747 710.207 75.5503 710.207 74.8281Z" fill="#542E20"/>
<path fill-rule="evenodd" clip-rule="evenodd" d="M278.661 98.6793C278.42 100.017 277.698 101.102 276.492 101.933C255.08 102.423 233.756 102.783 212.52 103.017C191.153 100.174 169.829 97.2804 148.547 94.3416C146.559 95.7015 144.39 96.4258 142.041 96.5104C142.281 95.1723 143.004 94.0878 144.21 93.2572C165.192 92.6304 186.155 93.3548 207.098 95.426C209.843 96.0962 212.373 97.1806 214.688 98.6793C235.827 97.8616 257.153 97.8616 278.661 98.6793Z" fill="#7E6A59"/>
<path fill-rule="evenodd" clip-rule="evenodd" d="M556.239 116.032C546.81 111.317 537.411 106.617 528.048 101.935C503.471 100.488 478.893 100.488 454.316 101.935C451.042 103.778 447.789 105.585 444.558 107.357C442.899 107.205 441.814 106.483 441.305 105.188C443.018 102.381 445.186 99.8504 447.81 97.597C453.438 97.1068 458.859 96.0224 464.075 94.3438C484.52 95.5041 505.121 95.8641 525.879 95.4282C533.454 97.4712 540.682 100.362 547.565 104.103C551.824 107.25 554.714 111.226 556.239 116.032Z" fill="#796452"/>
<path fill-rule="evenodd" clip-rule="evenodd" d="M597.442 83.5C605.889 88.3148 613.117 94.8213 619.128 103.019C614.839 104.791 612.67 108.045 612.622 112.779C613.811 121.238 615.257 129.553 616.959 137.721C616.599 147.147 616.962 156.544 618.044 165.916C621.952 168.711 624.482 172.327 625.634 176.76C609.799 193.564 604.015 213.808 608.285 237.487C605.425 221.921 605.425 206.017 608.285 189.773C616.959 184.713 616.959 179.651 608.285 174.591C605.041 154.514 605.765 134.632 610.454 114.948C609.628 107.845 606.375 102.423 600.695 98.6818C597.215 99.9853 594.324 102.154 592.021 105.188C577.377 126.89 568.34 150.747 564.914 176.76C561.162 177.901 558.269 180.069 556.239 183.266C560.347 186.4 563.96 190.016 567.082 194.11C564.922 193.924 563.116 194.648 561.661 196.279C557.556 193.102 553.941 189.489 550.818 185.435C544.811 187.274 538.668 187.996 532.385 187.604C540.337 182.544 546.843 176.038 551.902 168.084C553.869 160.008 557.482 152.779 562.745 146.396C557.087 140.143 553.112 132.912 550.818 124.708C546.251 119.03 540.83 114.692 534.554 111.695C531.993 108.296 528.38 106.487 523.711 106.273C502.697 106.37 481.734 106.008 460.822 105.188C452.486 105.488 449.596 109.103 452.148 116.032C456.936 117.167 460.189 120.058 461.907 124.708C462.991 144.936 463.351 165.18 462.991 185.435C457.682 184.535 454.792 186.704 454.317 191.942C458.099 195.717 460.989 200.055 462.991 204.955C453.783 202.254 447.277 196.47 443.474 187.604C444.625 183.171 447.156 179.555 451.064 176.76C452.866 160.086 452.506 143.457 449.979 126.877C439.844 122.077 436.953 114.848 441.305 105.188C441.815 106.483 442.899 107.205 444.558 107.357C447.789 105.585 451.042 103.779 454.317 101.935C478.893 100.488 503.472 100.488 528.048 101.935C537.412 106.618 546.811 111.317 556.239 116.032C560.835 119.255 564.088 123.593 565.998 129.045C573.573 111.734 584.056 96.552 597.442 83.5Z" fill="#4B3622"/>
<path fill-rule="evenodd" clip-rule="evenodd" d="M690.69 70.4845C693.895 69.9163 696.786 70.6385 699.364 72.6533C695.923 80.9361 692.308 89.2492 688.522 97.5949C689.244 98.6793 689.968 99.7637 690.69 100.848C693.334 98.3627 696.224 96.1938 699.364 94.3417C701.329 87.3602 704.942 81.5759 710.207 76.991C709.138 81.9923 708.416 87.0522 708.039 92.1728C704.703 99.5187 700.726 106.747 696.112 113.861C690.087 112.072 683.944 110.625 677.679 109.523C678.225 98.6381 679.309 87.794 680.932 76.991C683.688 73.9915 686.941 71.8227 690.69 70.4845Z" fill="#A76632"/>
<path fill-rule="evenodd" clip-rule="evenodd" d="M534.552 111.694C507.905 109.25 481.16 108.89 454.315 110.61C452.684 112.065 451.96 113.872 452.147 116.032C449.594 109.102 452.485 105.487 460.821 105.188C481.732 106.007 502.696 106.37 523.71 106.272C528.378 106.487 531.991 108.295 534.552 111.694Z" fill="#A28C71"/>
<path fill-rule="evenodd" clip-rule="evenodd" d="M148.548 105.188C166.614 106.181 184.686 107.265 202.762 108.441C204.988 109.553 207.157 110.638 209.268 111.694C204.541 116.045 199.481 119.66 194.088 122.538C193.727 142.793 194.088 163.037 195.172 183.265C199.776 184.276 203.029 186.807 204.93 190.856C201.23 194.129 197.615 197.382 194.088 200.616C194.088 223.027 194.088 245.439 194.088 267.85C203.484 266.082 208.544 269.698 209.268 278.694C207.822 279.416 206.376 280.141 204.93 280.863C204.93 277.972 204.93 275.079 204.93 272.188C199.413 273.046 194.714 271.6 190.835 267.85C188.557 259.6 186.75 251.286 185.413 242.908C187.018 239.037 188.464 235.061 189.75 230.98C185.801 217.197 187.246 204.184 194.088 191.941C190.694 184.452 188.526 176.501 187.582 168.084C189.992 165.674 191.438 162.781 191.919 159.408C190.497 155.173 189.774 150.835 189.75 146.395C186.546 146.964 183.654 146.241 181.076 144.226C178.506 141.292 175.614 138.761 172.402 136.636C172.924 133.248 171.84 129.995 169.149 126.876C168.065 127.96 166.98 129.045 165.896 130.129C168.522 132.543 168.522 135.074 165.896 137.72C167.342 139.167 168.787 140.611 170.233 142.058C166.491 149.466 164.322 157.417 163.728 165.915C164.68 169.394 166.125 172.647 168.065 175.675C164.217 180.756 161.326 186.178 159.39 191.941C162.912 191.637 165.442 193.084 166.98 196.278C168.497 192.956 171.027 190.787 174.57 189.772C176.536 193.862 178.704 197.84 181.076 201.7C178.284 204.759 175.754 208.012 173.486 211.46C171.637 207.936 169.469 207.214 166.98 209.291C166.35 218.754 165.266 228.152 163.728 237.486C165.567 245.589 166.29 253.542 165.896 261.343C164.45 264.234 163.005 267.128 161.559 270.019C166.962 272.276 166.962 274.083 161.559 275.441C174.946 279.781 188.68 281.587 202.762 280.863C185.798 283.37 168.45 283.732 150.716 281.947C147.046 278.909 145.601 274.933 146.379 270.019C150.454 268.195 154.791 267.47 159.39 267.85C159.39 244.715 159.39 221.582 159.39 198.447C156.571 195.569 153.679 192.678 150.716 189.772C153.448 187.859 155.978 185.69 158.306 183.265C159.39 162.312 159.751 141.346 159.39 120.369C154.769 115.791 151.155 110.731 148.548 105.188Z" fill="#DCC4A5"/>
<path fill-rule="evenodd" clip-rule="evenodd" d="M708.039 92.1719C707.18 97.6894 708.626 102.389 712.376 106.269C720.853 109.256 729.167 112.509 737.314 116.029C739.097 121.705 740.181 127.489 740.567 133.38C740.708 134.33 740.348 135.054 739.483 135.549C737.156 131.109 734.627 126.771 731.893 122.536C727.168 119.809 722.83 116.556 718.881 112.776C713.822 111.329 708.761 111.329 703.701 112.776C702.496 113.606 701.774 114.691 701.533 116.029C687.899 121.568 674.166 121.568 660.33 116.029C656.476 113.643 652.139 111.834 647.319 110.607C645.408 109.071 643.964 107.263 642.981 105.185C648.11 106.287 653.172 107.733 658.161 109.523C660.083 107.733 660.805 105.564 660.33 103.016C663.798 103.597 666.688 102.873 669.004 100.847C674.395 102.934 674.395 104.74 669.004 106.269C671.704 107.985 674.595 109.069 677.679 109.523C683.944 110.624 690.087 112.071 696.111 113.86C700.726 106.746 704.703 99.5177 708.039 92.1719Z" fill="#7B3B1C"/>
<path fill-rule="evenodd" clip-rule="evenodd" d="M642.981 105.188C643.963 107.265 645.408 109.074 647.318 110.61C652.139 111.837 656.476 113.646 660.33 116.032C657.897 119.91 657.534 124.247 659.245 129.045C665.222 134.506 669.559 141.012 672.257 148.564C676.583 153.437 682.005 155.606 688.521 155.071C691.557 156.372 693.726 158.541 695.027 161.577C679.021 160.258 666.371 153.03 657.077 139.889C651.462 129.216 646.041 118.372 640.812 107.356C641.081 106.04 641.804 105.318 642.981 105.188Z" fill="#A36745"/>
<path fill-rule="evenodd" clip-rule="evenodd" d="M740.567 133.384C742.014 133.384 743.458 133.384 744.905 133.384C745.419 136.184 744.696 138.353 742.736 139.891C742.606 138.713 741.884 137.991 740.567 137.722C737.946 143.016 734.331 147.354 729.725 150.735C730.553 141.582 726.94 135.076 718.882 131.215C715.44 125.212 711.465 119.428 706.955 113.865C705.5 115.496 703.693 116.22 701.533 116.034C701.774 114.695 702.496 113.611 703.702 112.78C708.761 111.334 713.822 111.334 718.882 112.78C722.831 116.561 727.168 119.814 731.893 122.54C734.628 126.776 737.156 131.113 739.483 135.553C740.348 135.059 740.708 134.334 740.567 133.384Z" fill="#9C5728"/>
<path fill-rule="evenodd" clip-rule="evenodd" d="M322.034 124.712C318.729 126.173 315.836 128.342 313.359 131.218C311.438 133.007 310.716 135.176 311.191 137.725C305.407 137.725 299.626 137.725 293.842 137.725C294.317 135.176 293.595 133.007 291.674 131.218C288.835 136.588 284.86 140.926 279.746 144.231C279.618 151.436 277.088 157.582 272.156 162.666C274.134 166.19 272.688 167.999 267.819 168.088C273.197 153.383 278.981 138.924 285.168 124.712C269.489 118.556 257.562 122.894 249.386 137.725C244.767 147.612 240.79 157.734 237.459 168.088C235.67 170.01 233.502 170.732 230.954 170.257C229.616 170.016 228.531 169.294 227.701 168.088C226.623 162.349 226.261 156.565 226.616 150.738C231.973 136.098 228.72 123.807 216.858 113.867C215.519 111.809 215.881 110.003 217.942 108.445C251.147 108.907 284.398 109.629 317.696 110.614C325.373 111.328 327.902 115.303 325.286 122.543C324.456 123.749 323.372 124.471 322.034 124.712Z" fill="#DEC7A7"/>
<path fill-rule="evenodd" clip-rule="evenodd" d="M278.661 98.6814C294.492 100.258 310.394 101.343 326.37 101.935C331.251 103.557 334.142 106.81 335.044 111.694C325.309 135.174 314.467 158.671 302.516 182.181C304.866 186.931 303.42 190.544 298.178 193.026C299.384 193.856 300.106 194.941 300.347 196.279C297.855 195.648 296.409 193.841 296.01 190.857C304.411 168.644 313.085 146.593 322.033 124.707C323.371 124.467 324.455 123.744 325.286 122.539C327.901 115.299 325.372 111.324 317.696 110.61C284.397 109.625 251.147 108.903 217.941 108.441C215.88 109.998 215.519 111.805 216.857 113.863C228.719 123.803 231.972 136.094 226.616 150.733C229.383 137.772 225.77 127.29 215.773 119.285C210.298 119.196 205.238 121.005 200.593 124.707C198.605 123.348 196.436 122.623 194.087 122.539C199.48 119.661 204.54 116.045 209.267 111.694C209.453 109.534 208.73 107.728 207.098 106.272C191.541 105.413 175.999 104.329 160.474 103.019C156.066 103.032 152.091 103.754 148.547 105.188C151.154 110.731 154.769 115.791 159.39 120.37C157.981 121.029 156.535 121.751 155.053 122.539C148.731 117.724 145.478 111.217 145.294 103.019C142.001 104.457 139.471 106.626 137.704 109.526C135.214 104.288 136.66 99.9502 142.041 96.5126C144.39 96.428 146.559 95.7036 148.547 94.3438C169.829 97.2825 191.154 100.176 212.52 103.019C233.757 102.785 255.08 102.425 276.493 101.935C277.699 101.104 278.421 100.02 278.661 98.6814Z" fill="#5B422C"/>
<path fill-rule="evenodd" clip-rule="evenodd" d="M148.547 105.184C152.09 103.751 156.066 103.029 160.474 103.016C175.999 104.326 191.54 105.41 207.098 106.269C208.73 107.724 209.453 109.531 209.267 111.691C207.156 110.635 204.987 109.55 202.761 108.438C184.685 107.262 166.614 106.178 148.547 105.184Z" fill="#A89377"/>
<path fill-rule="evenodd" clip-rule="evenodd" d="M98.6706 81.3348C101.703 87.529 100.619 93.3111 95.4177 98.6855C91.9821 101.637 88.0064 103.084 83.4906 103.023C82.7717 122.597 83.4945 142.116 85.6592 161.582C88.5974 163.074 90.7659 165.243 92.1649 168.088C89.8662 179.101 83.3605 187.052 72.6477 191.945C72.6477 190.499 72.6477 189.054 72.6477 187.608C74.4654 186.866 75.1884 185.421 74.8163 183.27C86.5843 177.663 86.2228 172.604 73.732 168.088C72.6479 143.52 72.2867 118.938 72.6477 94.3478C78.0457 94.7859 83.1057 93.7015 87.8277 91.0946C90.6276 88.2924 90.6276 85.7636 87.8277 83.5037C87.5877 82.1655 86.8649 81.0811 85.6592 80.2504C66.7431 78.6325 47.9488 76.1014 29.2763 72.6595C25.9593 72.9631 23.7907 74.4097 22.7706 76.9972C26.2125 83.0005 30.1882 88.7848 34.6977 94.3478C36.1435 118.205 36.1435 142.062 34.6977 165.919C30.0932 166.93 26.8403 169.461 24.9392 173.51C28.5845 177.492 32.1987 181.468 35.782 185.439C35.782 186.161 35.782 186.885 35.782 187.608C33.7425 193.301 31.2124 193.301 28.192 187.608C23.5925 180.565 19.6169 173.334 16.2649 165.919C17.6638 163.074 19.8323 160.905 22.7706 159.413C25.2981 138.486 25.6593 117.52 23.8549 96.5166C21.3514 93.8208 18.4599 91.652 15.1806 90.0101C14.1036 85.0001 13.7422 79.9403 14.0963 74.8283C16.5393 73.4793 18.7079 71.6727 20.602 69.4062C41.5875 69.7272 62.5502 71.1738 83.4906 73.7439C88.0639 76.2185 92.0395 79.4718 95.4177 83.5037C96.2474 82.2978 97.3317 81.5756 98.6706 81.3348Z" fill="#4E3821"/>
<path fill-rule="evenodd" clip-rule="evenodd" d="M22.7695 76.9922C44.5502 78.2132 66.2359 80.3821 87.8267 83.4987C90.6265 85.7586 90.6265 88.2875 87.8267 91.0896C83.1046 93.6965 78.0447 94.7809 72.6467 94.3428C72.2856 118.933 72.6469 143.515 73.731 168.083C86.2217 172.599 86.5832 177.658 74.8152 183.265C73.611 178.431 70.7197 174.817 66.141 172.421C69.7898 160.353 67.6212 149.509 59.6352 139.888C65.5379 132.176 68.0679 123.501 67.2252 113.862C66.008 114.994 64.5622 115.717 62.8881 116.031C52.5397 104.499 47.1182 107.03 46.6238 123.622C44.9976 141.333 43.5518 159.043 42.2867 176.758C40.1181 176.758 37.9495 176.758 35.781 176.758C35.781 179.649 35.781 182.543 35.781 185.434C32.1976 181.463 28.5835 177.487 24.9381 173.505C26.8393 169.456 30.0921 166.925 34.6967 165.914C36.1425 142.057 36.1425 118.2 34.6967 94.3428C30.1871 88.7798 26.2115 82.9955 22.7695 76.9922Z" fill="#E1C9AB"/>
<path fill-rule="evenodd" clip-rule="evenodd" d="M87.8267 83.5004C66.2359 80.3838 44.5502 78.215 22.7695 76.9939C23.7896 74.4065 25.9582 72.9599 29.2752 72.6562C47.9477 76.0982 66.7421 78.6292 85.6581 80.2472C86.8638 81.0778 87.5866 82.1622 87.8267 83.5004Z" fill="#AB977D"/>
<path fill-rule="evenodd" clip-rule="evenodd" d="M632.138 85.6674C636.27 91.7488 639.882 98.2553 642.981 105.187C641.804 105.317 641.082 106.039 640.813 107.356C646.041 118.371 651.463 129.215 657.077 139.888C666.372 153.029 679.021 160.258 695.027 161.576C695.027 162.299 695.027 163.023 695.027 163.745C692.136 163.745 689.243 163.745 686.353 163.745C677.765 160.906 669.091 157.653 660.33 153.986C656.29 146.742 651.953 139.873 647.318 133.382C640.028 121.776 631.353 111.654 621.296 103.018C612.795 91.083 605.927 78.07 600.694 63.9791C597.856 59.238 597.493 54.5382 599.61 49.8817C596.476 46.173 594.67 42.1954 594.188 37.9531C600.646 41.8809 606.068 46.9408 610.453 53.1349C617.195 64.4953 624.423 75.3394 632.138 85.6674Z" fill="#523024"/>
<path fill-rule="evenodd" clip-rule="evenodd" d="M74.8154 183.264C75.1875 185.415 74.4645 186.859 72.6468 187.601C68.823 192.544 66.6544 198.326 66.1411 204.952C67.7732 225.152 68.8575 245.394 69.394 265.679C74.1102 267.317 78.8088 269.123 83.4897 271.101C65.4183 272.548 47.3467 272.548 29.2754 271.101C32.5822 268.913 36.1966 267.828 40.1182 267.848C40.1542 245.962 41.6 224.274 44.4554 202.783C43.6923 196.89 40.8007 192.553 35.7811 189.77C35.7811 189.048 35.7811 188.323 35.7811 187.601C35.7811 186.879 35.7811 186.155 35.7811 185.432C35.7811 182.541 35.7811 179.648 35.7811 176.757C37.9497 176.757 40.1182 176.757 42.2868 176.757C43.552 159.042 44.9978 141.331 46.624 123.621C47.1184 107.029 52.5398 104.498 62.8882 116.03C64.5624 115.715 66.0082 114.993 67.2254 113.861C68.0681 123.499 65.538 132.175 59.6354 139.887C67.6214 149.508 69.7899 160.352 66.1411 172.419C70.7198 174.816 73.6112 178.429 74.8154 183.264Z" fill="#E9D0AB"/>
<path fill-rule="evenodd" clip-rule="evenodd" d="M619.127 103.016C619.849 103.016 620.573 103.016 621.295 103.016C631.353 111.652 640.028 121.774 647.318 133.379C647.318 145.67 647.318 157.959 647.318 170.249C647.318 170.972 647.318 171.696 647.318 172.418C643.684 170.937 642.237 168.044 642.981 163.743C640.813 163.743 638.644 163.743 636.475 163.743C636.835 149.988 636.475 136.253 635.391 122.535C631.776 118.92 628.163 115.306 624.548 111.691C620.927 120.327 618.396 129.003 616.958 137.717C615.256 129.549 613.809 121.234 612.621 112.775C612.669 108.041 614.837 104.788 619.127 103.016Z" fill="#281710"/>
<path fill-rule="evenodd" clip-rule="evenodd" d="M718.881 131.219C726.939 135.079 730.552 141.586 729.724 150.738C726.833 152.185 723.94 153.629 721.05 155.076C713.071 154.59 705.119 153.866 697.195 152.907C697.195 150.738 697.195 148.569 697.195 146.4C683.416 146.383 677.635 139.877 679.847 126.881C693.995 120.184 707.006 121.63 718.881 131.219Z" fill="#E4AD5E"/>
<path fill-rule="evenodd" clip-rule="evenodd" d="M534.552 111.698C540.827 114.695 546.249 119.033 550.816 124.711C553.11 132.915 557.085 140.146 562.743 146.399C557.48 152.782 553.867 160.01 551.9 168.087C543.289 169.122 537.143 173.459 533.467 181.1C531.14 179.409 528.61 179.771 525.877 182.185C527.324 185.8 528.768 189.413 530.214 193.029C528.768 194.475 527.324 195.92 525.877 197.366C527.434 202.704 528.881 208.126 530.214 213.633C529.492 214.355 528.768 215.079 528.046 215.802C522.193 207.697 517.131 199.021 512.866 189.776C518.721 182.313 521.612 173.637 521.54 163.75C522.045 152.049 521.323 140.482 519.372 129.048C515.058 118.419 507.468 115.528 496.602 120.373C495.517 139.879 495.157 159.399 495.517 178.931C491.62 181.599 487.283 183.043 482.506 183.269C482.853 186.954 482.493 190.569 481.422 194.113C480.762 189.904 478.956 186.29 476 183.269C478.579 181.254 481.469 180.532 484.674 181.1C487.671 166.758 485.863 153.02 479.253 139.892C477.522 145.833 473.907 150.171 468.41 152.905C466.996 163.283 468.08 173.403 471.663 183.269C468.343 185.683 466.174 188.936 465.157 193.029C467.736 200.492 469.904 208.083 471.663 215.802C468.885 221.247 467.439 227.032 467.326 233.152C469.546 245.415 470.631 257.706 470.579 270.022C468.386 271.838 465.856 272.56 462.989 272.191C462.989 270.745 462.989 269.3 462.989 267.853C462.989 246.887 462.989 225.923 462.989 204.957C460.987 200.058 458.096 195.72 454.314 191.944C454.789 186.707 457.68 184.538 462.989 185.438C463.349 165.183 462.989 144.939 461.904 124.711C460.187 120.061 456.934 117.17 452.146 116.035C451.959 113.875 452.684 112.068 454.314 110.613C481.159 108.893 507.904 109.253 534.552 111.698Z" fill="#E1CAA9"/>
<path fill-rule="evenodd" clip-rule="evenodd" d="M519.372 129.045C512.678 125.755 505.448 124.308 497.686 124.707C497.686 142.78 497.686 160.855 497.686 178.928C496.964 178.928 496.24 178.928 495.518 178.928C495.158 159.396 495.518 139.876 496.602 120.37C507.469 115.524 515.059 118.415 519.372 129.045Z" fill="#856C50"/>
<path fill-rule="evenodd" clip-rule="evenodd" d="M695.027 124.711C698.533 125.878 702.148 126.6 705.87 126.88C705.87 129.049 705.87 131.217 705.87 133.386C709.391 133.083 711.92 134.529 713.46 137.724C715.071 141.934 714.709 145.909 712.375 149.652C710.929 150.015 709.485 150.375 708.038 150.737C698.791 146.172 691.561 139.665 686.353 131.217C688.79 128.27 691.683 126.101 695.027 124.711Z" fill="#F3CC6A"/>
<path fill-rule="evenodd" clip-rule="evenodd" d="M204.93 280.862C204.207 280.862 203.484 280.862 202.761 280.862C188.679 281.586 174.945 279.78 161.558 275.44C166.961 274.082 166.961 272.276 161.558 270.018C163.004 267.127 164.45 264.234 165.895 261.343C166.289 253.541 165.566 245.588 163.727 237.485C165.265 228.151 166.35 218.753 166.98 209.291C169.468 207.213 171.637 207.935 173.485 211.459C175.753 208.011 178.283 204.758 181.075 201.7C178.704 197.839 176.535 193.862 174.57 189.771C171.027 190.786 168.497 192.955 166.98 196.278C165.441 193.083 162.911 191.636 159.39 191.94C161.325 186.177 164.216 180.755 168.064 175.674C166.125 172.646 164.679 169.393 163.727 165.914C164.321 157.416 166.49 149.466 170.233 142.057C168.787 140.61 167.341 139.166 165.895 137.719C168.522 135.073 168.522 132.542 165.895 130.128C166.98 129.044 168.064 127.959 169.148 126.875C171.839 129.994 172.923 133.247 172.401 136.635C175.614 138.76 178.505 141.291 181.075 144.226C183.653 146.24 186.545 146.963 189.75 146.394C189.774 150.834 190.497 155.172 191.918 159.407C191.437 162.78 189.991 165.673 187.581 168.083C188.525 176.5 190.693 184.451 194.087 191.94C187.246 204.183 185.8 217.196 189.75 230.979C188.463 235.061 187.017 239.036 185.413 242.907C186.749 251.286 188.556 259.599 190.834 267.849C194.713 271.599 199.412 273.046 204.93 272.187C204.93 275.078 204.93 277.971 204.93 280.862Z" fill="#EAD0AB"/>
<path fill-rule="evenodd" clip-rule="evenodd" d="M285.167 124.708C275.83 125.779 266.795 127.948 258.06 131.214C250.678 144.353 245.257 158.088 241.796 172.422C237.643 173.038 234.03 172.316 230.953 170.253C233.501 170.728 235.67 170.006 237.459 168.085C240.79 157.731 244.767 147.609 249.386 137.721C257.561 122.891 269.489 118.553 285.167 124.708Z" fill="#634A31"/>
<path fill-rule="evenodd" clip-rule="evenodd" d="M322.032 124.711C313.085 146.597 304.411 168.647 296.01 190.86C296.409 193.845 297.855 195.651 300.347 196.282C301.938 198.902 302.661 201.793 302.515 204.958C297.181 205.389 292.121 206.834 287.335 209.295C277.544 228.145 269.592 247.664 263.481 267.854C275.46 269.159 286.663 266.991 297.094 261.347C307.262 246.437 314.128 230.17 317.695 212.549C321.191 210.987 324.444 211.347 327.454 213.633C328.536 221.554 328.896 229.505 328.538 237.49C326.758 244.302 325.673 251.533 325.285 259.178C318.706 265.715 316.175 273.668 317.695 283.036C287.301 283.758 256.941 283.033 226.615 280.867C224.861 277.46 224.137 273.844 224.447 270.023C232.52 247.371 241.195 224.959 250.47 202.789C251.823 201.884 252.545 200.438 252.638 198.451C245.371 187.672 248.262 181.166 261.312 178.932C262.993 174.82 265.162 171.204 267.818 168.088C272.687 167.999 274.133 166.19 272.155 162.665C277.087 157.582 279.617 151.435 279.745 144.23C284.859 140.925 288.834 136.587 291.672 131.217C293.594 133.007 294.316 135.176 293.841 137.724C299.625 137.724 305.406 137.724 311.19 137.724C310.715 135.176 311.437 133.007 313.358 131.217C315.835 128.342 318.728 126.173 322.032 124.711ZM298.178 217.971C299.716 216.01 301.884 215.288 304.684 215.802C302.09 231.231 295.585 244.606 285.167 255.925C282.705 257.55 280.537 257.19 278.661 254.841C283.571 244.086 288.27 233.241 292.757 222.308C294.292 220.398 296.101 218.953 298.178 217.971Z" fill="#E4CCA9"/>
<path fill-rule="evenodd" clip-rule="evenodd" d="M608.284 237.485C607.551 250.485 611.888 261.329 621.295 270.017C616.585 268.486 612.248 266.317 608.284 263.511C601.679 243.809 599.51 223.565 601.778 202.784C601.325 199.543 599.879 197.012 597.441 195.193C600.332 189.408 603.225 183.626 606.115 177.842C603.912 176.716 602.468 174.908 601.778 172.42C602.928 167.427 603.652 162.367 603.947 157.238C600.054 149.498 598.246 141.547 598.525 133.381C595.635 139.165 592.742 139.165 589.851 133.381C590.042 141.479 587.151 147.986 581.177 152.9C572.956 167.115 569.341 182.297 570.334 198.446C572.774 205.798 576.026 212.667 580.093 219.05C578.798 223.147 578.074 227.122 577.924 230.978C582.667 238.287 585.557 246.24 586.598 254.836C575.224 236.403 568.718 216.161 567.081 194.108C563.958 190.014 560.346 186.398 556.238 183.264C558.268 180.067 561.161 177.898 564.913 176.758C568.339 150.745 577.375 126.888 592.02 105.186C594.323 102.152 597.213 99.9832 600.694 98.6797C606.373 102.421 609.626 107.843 610.453 114.946C605.764 134.63 605.04 154.512 608.284 174.589C616.958 179.649 616.958 184.711 608.284 189.771C605.424 206.015 605.424 221.919 608.284 237.485Z" fill="#DEC7A8"/>
<path fill-rule="evenodd" clip-rule="evenodd" d="M608.284 263.513C608.714 268.013 609.076 272.351 609.369 276.526C604.73 269.067 599.309 262.198 593.104 255.922C591.049 254.874 588.88 254.514 586.599 254.837C585.558 246.242 582.667 238.289 577.924 230.98C578.074 227.124 578.798 223.149 580.093 219.052C576.027 212.669 572.774 205.8 570.334 198.448C569.341 182.299 572.956 167.117 581.177 152.902C587.152 147.988 590.042 141.481 589.852 133.383C592.742 139.167 595.635 139.167 598.526 133.383C598.246 141.548 600.055 149.499 603.947 157.24C603.652 162.369 602.928 167.429 601.779 172.422C602.468 174.909 603.913 176.718 606.116 177.844C603.225 183.628 600.332 189.41 597.442 195.194C599.879 197.014 601.325 199.545 601.779 202.785C599.51 223.567 601.679 243.811 608.284 263.513Z" fill="#E9D0AC"/>
<path fill-rule="evenodd" clip-rule="evenodd" d="M159.39 120.366C159.751 141.343 159.39 162.309 158.306 183.262C155.978 185.687 153.448 187.856 150.716 189.769C153.679 192.675 156.571 195.566 159.39 198.444C151.05 200.062 144.544 196.809 139.873 188.684C131.719 186.134 125.575 188.663 121.44 196.275C120.611 195.069 119.526 194.347 118.188 194.107C119.711 189.3 122.602 185.325 126.862 182.178C134.241 181.961 141.108 180.152 147.463 176.756C148.909 158.683 148.909 140.608 147.463 122.535C142.085 119.7 138.832 115.363 137.705 109.522C139.472 106.622 142.002 104.454 145.295 103.016C145.478 111.214 148.731 117.72 155.053 122.535C156.535 121.748 157.981 121.026 159.39 120.366Z" fill="#45301E"/>
<path fill-rule="evenodd" clip-rule="evenodd" d="M495.518 178.93C496.241 178.93 496.965 178.93 497.687 178.93C497.687 179.652 497.687 180.376 497.687 181.098C498.593 182.664 500.038 183.749 502.024 184.352C500.578 185.074 499.133 185.798 497.687 186.52C499.142 188.659 499.142 191.19 497.687 194.111C495.174 219.038 494.811 244.339 496.603 270.02C501.176 271.181 502.261 273.35 499.856 276.527C486.731 281.721 473.72 281.721 460.821 276.527C461.608 275.046 462.331 273.599 462.99 272.189C465.857 272.558 468.387 271.836 470.58 270.02C470.632 257.704 469.548 245.413 467.327 233.15C467.44 227.03 468.886 221.246 471.664 215.8C469.905 208.081 467.737 200.49 465.158 193.027C466.175 188.934 468.344 185.681 471.664 183.267C468.082 173.401 466.997 163.281 468.411 152.904C473.909 150.169 477.524 145.831 479.254 139.891C485.864 153.019 487.673 166.756 484.676 181.098C481.47 180.53 478.58 181.252 476.001 183.267C478.957 186.288 480.763 189.902 481.423 194.111C482.494 190.568 482.854 186.952 482.507 183.267C487.284 183.042 491.622 181.597 495.518 178.93Z" fill="#EAD1AC"/>
<path fill-rule="evenodd" clip-rule="evenodd" d="M519.373 129.043C521.325 140.477 522.047 152.043 521.542 163.744C518.484 176.196 510.532 181.98 497.688 181.095C497.688 180.373 497.688 179.648 497.688 178.926C497.688 160.853 497.688 142.778 497.688 124.705C505.449 124.306 512.679 125.753 519.373 129.043Z" fill="#462E1A"/>
<path fill-rule="evenodd" clip-rule="evenodd" d="M718.881 131.218C707.006 121.629 693.995 120.183 679.847 126.88C677.635 139.876 683.417 146.382 697.196 146.4C697.196 148.568 697.196 150.737 697.196 152.906C705.12 153.865 713.072 154.589 721.05 155.075C710.602 156.439 699.759 156.439 688.521 155.075C682.005 155.611 676.583 153.442 672.257 148.568C669.559 141.017 665.222 134.51 659.246 129.049C657.535 124.252 657.897 119.914 660.33 116.036C674.166 121.575 687.899 121.575 701.533 116.036C703.693 116.223 705.499 115.498 706.954 113.867C711.465 119.43 715.44 125.215 718.881 131.218Z" fill="#D39456"/>
<path fill-rule="evenodd" clip-rule="evenodd" d="M742.736 139.888C737.362 153.926 727.241 162.602 712.376 165.914C707.067 163.803 701.284 163.081 695.027 163.745C695.027 163.023 695.027 162.298 695.027 161.576C693.726 158.54 691.557 156.371 688.521 155.069C699.759 156.434 710.602 156.434 721.05 155.069C723.941 153.623 726.834 152.178 729.724 150.732C734.33 147.351 737.945 143.013 740.567 137.719C741.884 137.988 742.606 138.71 742.736 139.888Z" fill="#B1854F"/>
<path fill-rule="evenodd" clip-rule="evenodd" d="M647.318 133.383C651.953 139.874 656.29 146.743 660.33 153.987C669.091 157.654 677.765 160.907 686.353 163.746C688.187 170.303 691.802 175.725 697.196 180.013C695.99 180.843 695.268 181.928 695.027 183.266C692.858 184.713 690.69 186.157 688.521 187.604C675.135 178.969 662.485 168.85 650.571 157.24C650.157 162.029 649.073 166.366 647.318 170.253C647.318 157.962 647.318 145.674 647.318 133.383Z" fill="#4A382E"/>
<path fill-rule="evenodd" clip-rule="evenodd" d="M636.476 163.75C638.645 163.75 640.813 163.75 642.982 163.75C642.238 168.051 643.684 170.944 647.319 172.425C645.872 173.872 644.428 175.316 642.982 176.763C640.82 176.698 639.373 177.782 638.645 180.016C641.865 184.692 645.118 189.392 648.403 194.114C650.173 205.357 649.813 216.201 647.319 226.646C647.679 216.498 647.317 206.378 646.235 196.282C645.512 197.005 644.788 197.729 644.066 198.451C640.39 190.11 634.969 183.603 627.802 178.932C628.801 172.853 631.694 167.791 636.476 163.75Z" fill="#4B3621"/>
<path fill-rule="evenodd" clip-rule="evenodd" d="M226.615 150.732C226.259 156.56 226.622 162.344 227.699 168.083C228.53 169.289 229.614 170.011 230.952 170.252C234.029 172.314 237.642 173.037 241.795 172.421C245.256 158.087 250.678 144.352 258.059 131.213C266.794 127.947 275.829 125.778 285.166 124.706C278.98 138.919 273.196 153.378 267.818 168.083C265.161 171.2 262.993 174.815 261.312 178.927C248.262 181.161 245.371 187.668 252.638 198.447C252.545 200.433 251.823 201.88 250.469 202.784C246.291 198.527 243.76 192.02 242.879 183.265C242.157 183.987 241.433 184.712 240.711 185.434C240.108 183.447 239.024 182.003 237.458 181.096C221.872 181.773 214.645 174.182 215.772 158.323C217.31 148.57 217.672 138.81 216.856 129.044C214.581 126.838 212.051 126.476 209.266 127.96C206.466 135.705 205.02 144.02 204.929 152.901C205.652 160.854 206.375 168.805 207.098 176.758C212.674 179.422 215.566 183.759 215.772 189.771C214.207 188.865 213.123 187.42 212.519 185.434C211.848 188.179 210.764 190.71 209.266 193.025C209.989 193.747 210.712 194.471 211.435 195.193C206.344 195.944 202.368 198.475 199.508 202.784C198.053 201.153 196.246 200.429 194.086 200.616C197.614 197.382 201.229 194.129 204.929 190.856C203.028 186.807 199.775 184.276 195.171 183.265C194.087 163.036 193.725 142.792 194.086 122.538C196.435 122.622 198.604 123.347 200.592 124.706C205.238 121.004 210.297 119.195 215.772 119.284C225.769 127.29 229.382 137.771 226.615 150.732ZM267.818 135.551C263.24 144.558 259.263 153.955 255.891 163.745C254.329 167.552 251.799 169.361 248.301 169.167C251.426 159.809 255.401 150.771 260.228 142.057C261.874 138.667 264.405 136.498 267.818 135.551Z" fill="#412C1A"/>
<path fill-rule="evenodd" clip-rule="evenodd" d="M423.955 200.613C426.052 224.195 431.836 246.605 441.304 267.847C441.544 269.185 442.266 270.269 443.472 271.1C449.939 272.18 456.445 272.542 462.989 272.184C462.33 273.594 461.608 275.041 460.821 276.522C473.719 281.716 486.731 281.716 499.855 276.522C502.26 273.345 501.176 271.176 496.602 270.016C494.811 244.335 495.173 219.033 497.686 194.107C497.324 218.697 497.686 243.278 498.771 267.847C502.455 269.812 506.432 270.534 510.698 270.016C510.698 272.907 510.698 275.8 510.698 278.691C508.987 279.305 507.54 280.389 506.361 281.944C489.012 283.391 471.664 283.391 454.315 281.944C450.934 278.136 447.319 278.136 443.472 281.944C426.846 283.391 410.221 283.391 393.595 281.944C391.368 280.832 389.199 279.747 387.089 278.691C386.226 269.454 390.563 265.478 400.101 266.762C405.058 238.483 393.491 228.361 365.404 236.399C355.502 247.137 354.78 257.981 363.235 268.931C366.778 270.003 370.394 270.363 374.078 270.016C374.811 277.934 371.198 281.547 363.235 280.86C352.544 281.517 342.063 280.793 331.791 278.691C330.067 272.438 332.595 269.185 339.381 268.931C344.136 264.539 346.305 259.117 345.886 252.665C348.786 238.91 351.679 225.175 354.561 211.457C358.115 204.428 356.306 198.644 349.139 194.107C348.092 192.05 347.732 189.882 348.055 187.6C353.025 188.155 357.725 187.433 362.151 185.431C369.981 164.235 375.041 142.547 377.331 120.366C365.813 108.34 368.344 103.642 384.921 106.269C389.299 107.245 393.274 109.051 396.848 111.691C404.054 135.464 410.922 159.321 417.449 183.262C421.442 184.846 425.419 186.292 429.376 187.6C429.739 188.684 430.099 189.769 430.461 190.853C426.991 193.289 424.822 196.542 423.955 200.613ZM369.741 248.327C375.568 247.972 381.351 248.334 387.089 249.412C389.295 251.687 389.657 254.218 388.174 257.003C378.224 262.696 372.081 259.803 369.741 248.327Z" fill="#E2C9A7"/>
<path fill-rule="evenodd" clip-rule="evenodd" d="M688.521 187.606C687.487 197.52 685.318 206.917 682.016 215.801C682.187 212.699 681.465 209.806 679.847 207.125C671.756 198.322 663.806 189.647 655.993 181.099C652.352 177.621 648.015 176.174 642.981 176.762C644.428 175.315 645.872 173.871 647.319 172.424C647.319 171.702 647.319 170.977 647.319 170.255C649.073 166.369 650.157 162.031 650.571 157.242C662.486 168.852 675.135 178.972 688.521 187.606Z" fill="#96826D"/>
<path fill-rule="evenodd" clip-rule="evenodd" d="M441.304 187.603C441.304 189.05 441.304 190.495 441.304 191.941C441.304 192.663 441.304 193.388 441.304 194.11C435.579 196.166 429.795 198.335 423.956 200.616C424.823 196.546 426.992 193.292 430.461 190.857C430.099 189.772 429.739 188.688 429.377 187.603C425.419 186.296 421.442 184.849 417.45 183.266C410.922 159.324 404.055 135.467 396.848 111.694C393.275 109.055 389.3 107.248 384.921 106.272C368.345 103.646 365.814 108.344 377.331 120.37C375.041 142.55 369.982 164.239 362.151 185.435C357.725 187.436 353.026 188.159 348.056 187.603C347.732 189.885 348.092 192.054 349.14 194.11C356.307 198.647 358.116 204.431 354.561 211.461C355.025 207.895 354.301 204.642 352.393 201.701C348.047 198.313 343.71 197.229 339.381 198.448C336.376 192.173 337.1 186.029 341.55 180.013C346.243 178.03 350.58 175.499 354.561 172.422C359.332 158.105 363.669 143.646 367.573 129.045C366.191 123.391 363.661 118.331 359.983 113.863C358.582 101.876 364.003 95.3696 376.247 94.3438C387.484 95.3284 397.603 98.9438 406.607 105.188C412.746 126.852 418.89 148.541 425.04 170.253C429.117 175.573 434.176 179.911 440.22 183.266C441.226 184.554 441.588 186.001 441.304 187.603Z" fill="#483422"/>
<path fill-rule="evenodd" clip-rule="evenodd" d="M642.981 176.76C648.015 176.172 652.352 177.619 655.993 181.098C663.806 189.645 671.756 198.321 679.847 207.124C681.465 209.804 682.187 212.698 682.016 215.799C678.7 241.587 667.135 262.915 647.319 279.78C626.422 289.752 608.714 285.776 594.189 267.851C591.107 263.719 588.576 259.382 586.599 254.838C588.88 254.515 591.049 254.875 593.104 255.923C599.309 262.199 604.73 269.068 609.369 276.526C609.076 272.351 608.714 268.014 608.284 263.513C612.248 266.32 616.586 268.489 621.296 270.02C632.299 270.118 639.889 265.058 644.066 254.838C646.397 245.577 647.481 236.18 647.319 226.643C649.812 216.198 650.172 205.354 648.403 194.111C645.118 189.389 641.865 184.689 638.644 180.013C639.373 177.78 640.819 176.695 642.981 176.76Z" fill="#E5CCA9"/>
<path fill-rule="evenodd" clip-rule="evenodd" d="M378.416 176.758C385.744 190.857 390.081 206.039 391.428 222.303C383.475 222.303 375.525 222.303 367.573 222.303C370.733 207.037 374.346 191.855 378.416 176.758Z" fill="#402A16"/>
<path opacity="0.674" fill-rule="evenodd" clip-rule="evenodd" d="M237.458 181.094C239.024 182 240.108 183.445 240.711 185.431C241.433 184.709 242.158 183.985 242.88 183.263C243.76 192.018 246.291 198.525 250.47 202.782C241.195 224.952 232.521 247.365 224.447 270.016C222.363 273.844 221.639 278.181 222.278 283.029C218.67 280.333 216.14 276.718 214.688 272.185C213.878 276.503 212.071 280.118 209.267 283.029C209.267 281.582 209.267 280.138 209.267 278.691C208.543 269.695 203.483 266.079 194.087 267.847C194.087 245.436 194.087 223.024 194.087 200.613C196.247 200.427 198.054 201.151 199.508 202.782C202.368 198.473 206.344 195.942 211.435 195.191C210.713 194.469 209.99 193.745 209.267 193.022C210.764 190.708 211.849 188.177 212.52 185.431C213.124 187.418 214.208 188.863 215.773 189.769C216.598 196.909 213.706 201.969 207.098 204.951C204.572 222.256 204.211 239.607 206.014 257.003C208.905 258.449 211.797 259.894 214.688 261.34C223 240.737 231.315 220.133 239.627 199.529C236.218 193.434 235.496 187.29 237.458 181.094Z" fill="#2A1A10"/>
<path fill-rule="evenodd" clip-rule="evenodd" d="M497.688 194.11C505.213 192.754 511.358 194.923 516.12 200.616C518.827 219.973 520.273 239.493 520.458 259.175C525.534 287.2 540.352 294.429 564.913 280.863C562.665 289.551 556.883 293.165 547.565 291.707C535.64 291.022 525.881 285.962 518.289 276.525C516.834 278.156 515.027 278.881 512.868 278.694C512.145 278.694 511.421 278.694 510.699 278.694C510.699 275.803 510.699 272.91 510.699 270.019C506.433 270.537 502.456 269.815 498.772 267.85C497.688 243.282 497.325 218.7 497.688 194.11Z" fill="#2C1A0E"/>
<path fill-rule="evenodd" clip-rule="evenodd" d="M625.634 176.758C625.634 178.204 626.356 178.927 627.802 178.927C634.969 183.598 640.391 190.105 644.066 198.446C644.789 197.724 645.513 197 646.235 196.277C647.317 206.373 647.679 216.493 647.319 226.641C647.482 236.177 646.398 245.575 644.066 254.836C639.89 265.055 632.3 270.115 621.296 270.018C611.889 261.329 607.552 250.485 608.285 237.485C604.015 213.806 609.799 193.562 625.634 176.758ZM625.634 181.095C626.668 186.496 629.561 190.834 634.308 194.108C636.834 210.689 637.194 227.318 635.392 243.992C632.671 258.664 627.611 260.108 620.212 248.329C617.198 231.07 616.476 213.719 618.044 196.277C623.988 192.879 626.518 187.817 625.634 181.095Z" fill="#2A1A0F"/>
<path fill-rule="evenodd" clip-rule="evenodd" d="M92.1642 168.086C96.4595 177.867 93.9296 185.818 84.5742 191.943C83.4903 212.172 83.1288 232.416 83.4899 252.67C92.1416 254.588 98.2858 251.697 101.923 243.995C107.638 227.213 113.06 210.584 118.187 194.112C119.526 194.353 120.61 195.075 121.44 196.281C125.574 188.668 131.719 186.139 139.873 188.69C144.544 196.814 151.049 200.068 159.39 198.45C159.39 221.584 159.39 244.717 159.39 267.852C154.791 267.473 150.454 268.197 146.378 270.021C143.291 274.391 141.845 279.451 142.041 285.203C141.104 287.827 139.659 289.996 137.704 291.709C137.704 290.263 137.704 288.818 137.704 287.372C139.09 256.288 139.451 225.202 138.788 194.112C134.587 191.162 130.972 191.885 127.946 196.281C123.76 216.67 117.254 236.189 108.428 254.839C103.559 262.228 96.6924 265.119 87.827 263.515C82.9287 263.445 78.23 262.721 73.7313 261.346C72.6475 238.224 72.286 215.089 72.647 191.943C83.3598 187.05 89.8655 179.099 92.1642 168.086Z" fill="#311F12"/>
<path fill-rule="evenodd" clip-rule="evenodd" d="M441.305 187.602C442.027 187.602 442.751 187.602 443.473 187.602C447.277 196.468 453.783 202.252 462.99 204.952C462.99 225.918 462.99 246.882 462.99 267.848C455.762 270.739 448.532 270.739 441.305 267.848C431.837 246.607 426.053 224.196 423.956 200.615C429.796 198.333 435.58 196.164 441.305 194.108C439.112 198.459 436.944 202.796 434.799 207.121C436.657 218.841 439.188 230.41 442.389 241.822C443.363 248.737 446.253 254.521 451.063 259.173C452.867 241.057 452.505 222.982 449.979 204.952C445.232 201.677 442.339 197.34 441.305 191.939C441.305 190.493 441.305 189.048 441.305 187.602Z" fill="#291A0D"/>
<path fill-rule="evenodd" clip-rule="evenodd" d="M335.044 111.695C336.95 117.371 336.588 123.155 333.96 129.046C325.641 148.576 317.327 168.096 309.021 187.604C309.861 191.452 311.305 195.067 313.359 198.449C319.749 200.229 326.255 201.314 332.876 201.702C333.96 202.786 335.044 203.871 336.129 204.955C338.455 212.728 339.902 220.679 340.466 228.812C341.118 221.278 342.925 214.047 345.887 207.124C343.667 204.192 341.498 201.301 339.381 198.449C343.71 197.23 348.047 198.314 352.393 201.702C354.301 204.643 355.026 207.896 354.561 211.462C351.679 225.179 348.787 238.915 345.887 252.669C343.912 257.551 341.021 261.889 337.213 265.682C331.917 265.999 330.471 264.192 332.876 260.26C328.838 253.431 327.391 245.84 328.539 237.488C328.896 229.502 328.536 221.551 327.454 213.63C324.444 211.344 321.191 210.984 317.696 212.546C314.128 230.168 307.263 246.434 297.094 261.345C286.663 266.988 275.461 269.157 263.481 267.851C269.592 247.662 277.545 228.142 287.336 209.293C292.122 206.831 297.181 205.387 302.516 204.955C302.661 201.791 301.939 198.9 300.347 196.28C300.106 194.942 299.384 193.857 298.179 193.026C303.42 190.545 304.866 186.932 302.516 182.182C314.467 158.672 325.31 135.175 335.044 111.695ZM298.179 217.968C296.101 218.951 294.293 220.395 292.757 222.306C288.27 233.239 283.571 244.083 278.661 254.838C280.537 257.187 282.706 257.547 285.167 255.923C295.585 244.603 302.091 231.228 304.684 215.799C301.885 215.285 299.716 216.007 298.179 217.968Z" fill="#2E1D12"/>
<path fill-rule="evenodd" clip-rule="evenodd" d="M72.6477 187.602C72.6477 189.048 72.6477 190.493 72.6477 191.939C72.2866 215.085 72.6481 238.22 73.732 261.342C78.2307 262.717 82.9293 263.441 87.8277 263.511C96.693 265.116 103.56 262.225 108.429 254.835C117.255 236.186 123.76 216.666 127.946 196.277C130.973 191.881 134.587 191.158 138.789 194.108C139.452 225.198 139.09 256.284 137.705 287.368C134.304 289.478 130.69 289.84 126.862 288.452C125.221 285.173 123.052 282.28 120.356 279.777C89.2735 279.055 58.1905 278.33 27.1077 277.608C25.9276 276.053 24.4818 274.969 22.7706 274.355C21.8207 264.795 26.1579 261.179 35.782 263.511C35.782 238.931 35.782 214.35 35.782 189.77C40.8016 192.553 43.6932 196.891 44.4563 202.783C41.6009 224.274 40.1551 245.963 40.1191 267.848C36.1975 267.829 32.5831 268.913 29.2763 271.102C47.3476 272.548 65.4192 272.548 83.4906 271.102C78.8097 269.124 74.1111 267.317 69.3948 265.679C68.8583 245.394 67.7741 225.153 66.142 204.952C66.6553 198.326 68.8239 192.544 72.6477 187.602Z" fill="#E4CAA9"/>
<path fill-rule="evenodd" clip-rule="evenodd" d="M16.2649 165.914C19.6169 173.329 23.5925 180.56 28.1921 187.602C31.2125 193.296 33.7425 193.296 35.7821 187.602C35.7821 188.325 35.7821 189.049 35.7821 189.771C35.7821 214.351 35.7821 238.932 35.7821 263.511C26.158 261.18 21.8208 264.795 22.7706 274.356C23.3575 278.541 25.526 281.435 29.2764 283.031C26.4093 283.4 23.8794 282.677 21.6864 280.862C19.0567 275.603 16.5267 270.541 14.0964 265.68C13.7723 263.399 14.1337 261.23 15.1806 259.174C18.46 257.532 21.3514 255.363 23.8549 252.667C25.6596 230.942 25.2983 209.254 22.7706 187.602C20.0641 186.431 17.5341 184.985 15.1806 183.265C13.4442 177.047 13.8056 171.262 16.2649 165.914Z" fill="#2A190D"/>
<path fill-rule="evenodd" clip-rule="evenodd" d="M521.542 163.75C521.613 173.638 518.723 182.313 512.868 189.776C517.133 199.022 522.195 207.697 528.048 215.802C528.77 215.08 529.494 214.355 530.216 213.633C528.882 208.126 527.436 202.704 525.879 197.367C527.325 195.92 528.77 194.476 530.216 193.029C528.77 189.414 527.325 185.801 525.879 182.185C528.611 179.771 531.142 179.409 533.469 181.101C537.145 173.46 543.29 169.122 551.902 168.088C546.843 176.041 540.337 182.547 532.385 187.607C531.435 187.466 530.711 187.826 530.216 188.692C537.596 193.639 543.741 199.783 548.649 207.127C550.997 226.529 552.804 246.048 554.07 265.685C555.551 264.898 556.998 264.176 558.408 263.516C561.788 256.212 563.595 248.259 563.829 239.659C566.021 241.474 568.552 242.197 571.419 241.828C571.419 246.166 571.419 250.503 571.419 254.841C570.35 259.842 569.628 264.902 569.25 270.023C567.496 273.337 566.05 276.95 564.913 280.867C540.352 294.433 525.534 287.204 520.458 259.179C520.273 239.496 518.827 219.977 516.12 200.62C511.358 194.927 505.212 192.758 497.688 194.114C499.143 191.192 499.143 188.661 497.688 186.523C499.134 185.801 500.578 185.076 502.025 184.354C500.038 183.751 498.594 182.667 497.688 181.101C510.532 181.986 518.484 176.201 521.542 163.75Z" fill="#E5CCAA"/>
<path fill-rule="evenodd" clip-rule="evenodd" d="M345.888 252.672C346.307 259.124 344.138 264.546 339.383 268.938C332.597 269.192 330.069 272.445 331.793 278.698C342.065 280.799 352.546 281.524 363.237 280.867C351.887 283.69 340.322 283.69 328.54 280.867C324.213 271.489 327.104 266.427 337.214 265.685C341.022 261.892 343.913 257.554 345.888 252.672Z" fill="#B39C83"/>
<path fill-rule="evenodd" clip-rule="evenodd" d="M695.027 183.266C695.173 224.363 679.27 257.98 647.319 284.116C635.387 290.395 623.098 291.119 610.453 286.285C598.656 278.746 588.535 269.711 580.093 259.175C574.207 260.723 570.592 264.339 569.25 270.019C569.627 264.898 570.35 259.838 571.419 254.837C573.878 249.489 574.24 243.704 572.503 237.486C569.144 232.058 565.529 232.058 561.66 237.486C560.574 246.183 559.489 254.859 558.407 263.512C556.998 264.172 555.551 264.894 554.07 265.681C552.804 246.045 550.997 226.525 548.649 207.123C543.741 199.779 537.595 193.635 530.216 188.688C530.71 187.822 531.435 187.462 532.384 187.603C538.667 187.996 544.81 187.274 550.817 185.434C553.94 189.488 557.555 193.101 561.66 196.279C563.115 194.648 564.922 193.923 567.082 194.11C568.719 216.162 575.225 236.404 586.599 254.837C588.576 259.381 591.107 263.718 594.189 267.85C608.714 285.775 626.422 289.751 647.319 279.779C667.135 262.914 678.7 241.585 682.016 215.798C685.319 206.915 687.487 197.517 688.522 187.603C690.69 186.157 692.859 184.712 695.027 183.266Z" fill="#392515"/>
<path fill-rule="evenodd" clip-rule="evenodd" d="M571.419 254.836C571.419 250.498 571.419 246.161 571.419 241.823C568.552 242.192 566.021 241.47 563.829 239.654C563.594 248.254 561.788 256.207 558.407 263.511C559.489 254.858 560.574 246.183 561.66 237.486C565.529 232.057 569.144 232.057 572.503 237.486C574.24 243.704 573.878 249.488 571.419 254.836Z" fill="#B19A7E"/>
<path fill-rule="evenodd" clip-rule="evenodd" d="M387.09 278.695C386.904 280.855 387.628 282.662 389.259 284.117C406.592 285.201 423.941 285.561 441.305 285.201C425.977 286.68 410.437 288.127 394.68 289.539C389.32 288.021 384.261 285.852 379.5 283.032C375.907 285.167 372.294 287.335 368.658 289.539C356.91 287.784 344.983 286.7 332.876 286.286C330.152 285.381 328.706 283.575 328.539 280.864C340.321 283.687 351.886 283.687 363.236 280.864C371.199 281.551 374.812 277.938 374.079 270.019C370.395 270.366 366.78 270.006 363.236 268.935C354.781 257.985 355.503 247.14 365.405 236.403C393.492 228.365 405.059 238.487 400.102 266.766C390.565 265.482 386.227 269.458 387.09 278.695ZM369.742 248.331C372.082 259.806 378.225 262.7 388.175 257.006C389.658 254.222 389.296 251.691 387.09 249.416C381.352 248.338 375.569 247.975 369.742 248.331Z" fill="#2D1D13"/>
<path fill-rule="evenodd" clip-rule="evenodd" d="M328.539 237.484C327.392 245.837 328.838 253.427 332.876 260.257C330.471 264.189 331.917 265.996 337.213 265.679C327.103 266.421 324.212 271.483 328.539 280.861C325.427 278.063 323.258 274.45 322.033 270.017C319.908 275.625 319.186 281.41 319.865 287.367C289.496 287.73 259.136 287.367 228.785 286.283C226.557 285.17 224.389 284.086 222.279 283.03C221.639 278.182 222.363 273.845 224.447 270.017C224.137 273.838 224.862 277.454 226.616 280.861C256.941 283.028 287.301 283.752 317.696 283.03C316.176 273.663 318.706 265.71 325.286 259.173C325.674 251.528 326.758 244.297 328.539 237.484Z" fill="#422E20"/>
<path fill-rule="evenodd" clip-rule="evenodd" d="M686.352 163.746C689.243 163.746 692.136 163.746 695.027 163.746C701.283 163.082 707.067 163.805 712.375 165.915C707.98 165.564 703.642 165.926 699.364 166.999C710.827 175.976 710.465 185.014 698.28 194.11C697.317 231.084 683.221 261.81 655.992 286.285C625.233 303.744 600.295 297.598 581.177 267.85C572.585 298.357 554.152 306.672 525.878 292.792C523.347 290.261 520.819 287.732 518.288 285.201C515.428 289.51 511.453 292.041 506.361 292.792C497.687 293.154 489.012 293.514 480.338 293.876C452.203 292.993 424.012 292.631 395.764 292.792C389.013 292.907 383.592 290.376 379.5 285.201C370.567 291.777 360.446 294.668 349.14 293.876C310.528 293.746 271.856 293.384 233.121 292.792C226.936 292.208 221.155 290.399 215.772 287.37C211.684 289.775 207.347 291.584 202.761 292.792C184.584 294.533 166.512 294.171 148.547 291.707C137.604 303.252 126.761 303.252 116.018 291.707C86.4074 289.901 56.7702 288.816 27.1067 288.454C15.9993 285.175 11.6622 277.584 14.0953 265.681C16.5257 270.542 19.0556 275.604 21.6853 280.863C23.8783 282.678 26.4082 283.401 29.2753 283.032C57.476 282.67 85.6674 283.032 113.85 284.116C118.605 286.424 122.942 289.317 126.861 292.792C130.689 294.18 134.303 293.817 137.704 291.707C139.658 289.994 141.104 287.825 142.041 285.201C162.232 287.415 182.472 287.775 202.761 286.285C204.987 285.172 207.156 284.088 209.267 283.032C212.071 280.121 213.878 276.506 214.688 272.188C216.14 276.721 218.67 280.336 222.278 283.032C224.388 284.088 226.557 285.172 228.784 286.285C259.135 287.37 289.495 287.732 319.864 287.37C319.185 281.412 319.907 275.627 322.032 270.019C323.258 274.452 325.426 278.065 328.538 280.863C328.705 283.574 330.152 285.381 332.875 286.285C344.982 286.699 356.91 287.784 368.657 289.538C372.293 287.335 375.906 285.166 379.5 283.032C384.26 285.851 389.319 288.02 394.68 289.538C410.436 288.126 425.976 286.68 441.304 285.201C462.948 287.367 484.634 287.73 506.361 286.285C508.985 284.032 511.154 281.501 512.867 278.694C515.027 278.881 516.833 278.156 518.288 276.525C525.88 285.962 535.639 291.022 547.564 291.707C556.882 293.165 562.664 289.551 564.912 280.863C566.049 276.946 567.495 273.333 569.25 270.019C570.592 264.339 574.207 260.723 580.092 259.175C588.535 269.711 598.655 278.746 610.452 286.285C623.097 291.119 635.387 290.395 647.318 284.116C679.27 257.98 695.172 224.363 695.027 183.266C695.267 181.927 695.99 180.843 697.195 180.012C691.802 175.725 688.187 170.303 686.352 163.746Z" fill="#160A05"/>
<path fill-rule="evenodd" clip-rule="evenodd" d="M387.089 278.695C389.199 279.752 391.368 280.836 393.595 281.949C410.221 283.395 426.846 283.395 443.472 281.949C447.319 278.14 450.934 278.14 454.315 281.949C471.663 283.395 489.012 283.395 506.361 281.949C507.54 280.394 508.987 279.309 510.698 278.695C511.42 278.695 512.144 278.695 512.866 278.695C511.153 281.502 508.985 284.033 506.361 286.286C484.634 287.731 462.948 287.368 441.303 285.202C423.94 285.562 406.591 285.202 389.258 284.117C387.627 282.662 386.903 280.855 387.089 278.695Z" fill="#463324"/>
<path fill-rule="evenodd" clip-rule="evenodd" d="M146.379 270.016C145.601 274.93 147.047 278.906 150.716 281.944C168.45 283.729 185.798 283.367 202.762 280.86C203.485 280.86 204.208 280.86 204.931 280.86C206.376 280.138 207.822 279.413 209.268 278.691C209.268 280.138 209.268 281.582 209.268 283.029C207.157 284.085 204.988 285.169 202.762 286.282C182.473 287.772 162.233 287.412 142.042 285.197C141.846 279.446 143.292 274.386 146.379 270.016Z" fill="#44311F"/>
<path fill-rule="evenodd" clip-rule="evenodd" d="M22.7695 274.359C24.4808 274.973 25.9265 276.058 27.1067 277.613C58.1895 278.335 89.2725 279.059 120.355 279.781C123.051 282.284 125.22 285.178 126.861 288.457C130.688 289.845 134.303 289.483 137.704 287.372C137.704 288.819 137.704 290.263 137.704 291.71C134.303 293.82 130.688 294.182 126.861 292.794C122.942 289.32 118.605 286.427 113.85 284.119C85.6674 283.035 57.476 282.673 29.2752 283.035C25.5249 281.438 23.3563 278.545 22.7695 274.359Z" fill="#4F3C2B"/>
<path fill-rule="evenodd" clip-rule="evenodd" d="M441.305 267.852C448.533 270.743 455.763 270.743 462.99 267.852C462.99 269.298 462.99 270.743 462.99 272.189C456.446 272.547 449.94 272.185 443.473 271.105C442.268 270.274 441.545 269.19 441.305 267.852Z" fill="#A08770"/>
</svg>
